<?xml version="1.0" encoding="UTF-8"?>
<!DOCTYPE svg PUBLIC "-//W3C//DTD SVG 1.1//EN" "http://www.w3.org/Graphics/SVG/1.1/DTD/svg11.dtd">
<svg xmlns="http://www.w3.org/2000/svg" version="1.1" width="500px" height="500px" style="shape-rendering:geometricPrecision; text-rendering:geometricPrecision; image-rendering:optimizeQuality; fill-rule:evenodd; clip-rule:evenodd" xmlns:xlink="http://www.w3.org/1999/xlink">
<g><path style="opacity:1" fill="#fefefe" d="M -0.5,-0.5 C 166.167,-0.5 332.833,-0.5 499.5,-0.5C 499.5,166.167 499.5,332.833 499.5,499.5C 332.833,499.5 166.167,499.5 -0.5,499.5C -0.5,332.833 -0.5,166.167 -0.5,-0.5 Z"/></g>
<g><path style="opacity:1" fill="#1eb1f3" d="M 250.5,15.5 C 259.464,14.3245 267.464,16.4912 274.5,22C 272.998,24.5438 271.164,26.7105 269,28.5C 264.37,25.2819 259.37,23.9486 254,24.5C 253.28,26.1124 253.446,27.6124 254.5,29C 259.198,31.3489 263.864,33.6822 268.5,36C 275.018,45.6476 272.685,52.3143 261.5,56C 252.082,57.0281 244.082,54.1948 237.5,47.5C 238.701,45.0905 240.367,43.0905 242.5,41.5C 245.673,43.5872 249.006,45.4205 252.5,47C 255.429,47.7772 258.263,47.6105 261,46.5C 261.63,44.0966 260.797,42.2633 258.5,41C 254.047,39.2737 249.714,37.2737 245.5,35C 240.29,26.6525 241.957,20.1525 250.5,15.5 Z"/></g>
<g><path style="opacity:1" fill="#1eb1f3" d="M 199.5,17.5 C 204.337,17.1162 209.003,17.7829 213.5,19.5C 214.449,22.1258 214.449,24.7925 213.5,27.5C 208.162,26.9979 202.828,26.8312 197.5,27C 194.674,29.5219 195.007,31.5219 198.5,33C 204.811,33.0616 210.811,34.3949 216.5,37C 222.906,47.2167 220.239,54.2167 208.5,58C 201.686,58.9912 195.02,58.4912 188.5,56.5C 187.477,53.2114 188.144,50.2114 190.5,47.5C 196.569,50.9264 202.735,51.2597 209,48.5C 209.72,46.8876 209.554,45.3876 208.5,44C 202.864,42.9451 197.197,41.9451 191.5,41C 185.891,37.7231 184.058,32.8897 186,26.5C 189.49,21.848 193.99,18.848 199.5,17.5 Z"/></g>
<g><path style="opacity:1" fill="#16b0f3" d="M 286.5,20.5 C 290.302,20.8737 293.636,22.207 296.5,24.5C 294.833,29.1667 293.167,33.8333 291.5,38.5C 296.589,40.9741 301.922,42.6408 307.5,43.5C 309.032,38.9026 310.365,34.236 311.5,29.5C 314.877,29.9595 318.211,30.6261 321.5,31.5C 317.698,44.2388 313.698,56.9055 309.5,69.5C 305.698,69.1263 302.364,67.793 299.5,65.5C 300.97,61.0883 302.637,56.755 304.5,52.5C 299.51,50.5026 294.51,48.5026 289.5,46.5C 287.045,50.8648 285.378,55.5315 284.5,60.5C 281.123,60.0405 277.789,59.3739 274.5,58.5C 278.302,45.7612 282.302,33.0945 286.5,20.5 Z"/></g>
<g><path style="opacity:1" fill="#17b0f3" d="M 162.5,28.5 C 166.167,28.5 169.833,28.5 173.5,28.5C 173.5,31.5 173.5,34.5 173.5,37.5C 169.818,37.3347 166.152,37.5014 162.5,38C 159.791,38.5408 157.791,40.0408 156.5,42.5C 156.977,43.4776 157.643,44.3109 158.5,45C 162.665,45.3118 166.832,45.1452 171,44.5C 181.814,44.8095 185.814,50.1428 183,60.5C 175.653,69.4518 166.153,72.7851 154.5,70.5C 154.5,67.5 154.5,64.5 154.5,61.5C 160.406,63.306 166.073,62.806 171.5,60C 174.487,56.136 173.487,53.9694 168.5,53.5C 163.191,54.5111 157.857,54.6778 152.5,54C 144.293,46.7305 144.626,39.7305 153.5,33C 156.592,31.4541 159.592,29.9541 162.5,28.5 Z"/></g>
<g><path style="opacity:1" fill="#19b0f3" d="M 333.5,39.5 C 336.223,40.3519 338.89,41.5186 341.5,43C 342.022,43.5613 342.355,44.228 342.5,45C 336.553,56.3942 330.22,67.5609 323.5,78.5C 320.219,77.3752 317.552,75.5418 315.5,73C 321.645,61.8748 327.645,50.7081 333.5,39.5 Z"/></g>
<g><path style="opacity:1" fill="#19b0f3" d="M 129.5,45.5 C 130.822,45.33 131.989,45.6634 133,46.5C 139.46,57.2559 146.293,67.7559 153.5,78C 150.971,80.0285 148.304,81.8619 145.5,83.5C 137.436,73.053 130.102,62.053 123.5,50.5C 125.571,48.8149 127.571,47.1482 129.5,45.5 Z"/></g>
<g><path style="opacity:1" fill="#1eb1f3" d="M 354.5,51.5 C 357.1,52.9188 359.6,54.5854 362,56.5C 361.908,66.5674 361.574,76.5674 361,86.5C 365.833,81 370.667,75.5 375.5,70C 378.82,70.2646 381.487,71.9312 383.5,75C 374.624,84.8743 366.124,95.0409 358,105.5C 356.292,103.457 354.292,101.79 352,100.5C 351.538,90.4785 351.538,80.4785 352,70.5C 347,76.1667 342,81.8333 337,87.5C 334.357,86.0237 332.19,84.0237 330.5,81.5C 338.144,71.1924 346.144,61.1924 354.5,51.5 Z"/></g>
<g><path style="opacity:1" fill="#fba621" d="M 394.5,175.5 C 352.279,219.397 307.612,260.397 260.5,298.5C 260.167,298.167 259.833,297.833 259.5,297.5C 265.163,274.383 264.663,251.383 258,228.5C 254.09,216.106 250.59,203.606 247.5,191C 249.664,186.193 252.497,181.693 256,177.5C 264.201,162.993 265.534,147.993 260,132.5C 268.242,143.89 271.575,156.556 270,170.5C 269.385,176.972 268.385,183.305 267,189.5C 275.952,177.979 279.619,164.979 278,150.5C 275.037,141.869 269.537,135.369 261.5,131C 283.801,133.297 299.301,144.797 308,165.5C 310.774,172.929 312.441,180.596 313,188.5C 316.642,175.027 316.309,161.694 312,148.5C 307.711,139.546 300.877,133.379 291.5,130C 282.521,127.847 273.521,127.181 264.5,128C 272.934,122.186 282.267,118.519 292.5,117C 307.381,115.681 322.048,116.848 336.5,120.5C 338.608,121.775 340.942,122.275 343.5,122C 341.807,121.153 340.14,120.32 338.5,119.5C 324.696,112.265 310.029,107.932 294.5,106.5C 284.157,106.331 275.157,109.664 267.5,116.5C 272.612,99.6444 268.779,84.9778 256,72.5C 263.396,90.0106 264.396,108.011 259,126.5C 256.796,98.9647 241.963,86.798 214.5,90C 229.887,93.9393 242.054,102.439 251,115.5C 252.626,118.058 253.626,120.725 254,123.5C 232.076,106.411 211.243,107.578 191.5,127C 199.085,123.699 207.085,121.365 215.5,120C 224.395,118.929 233.062,119.763 241.5,122.5C 239.167,123.167 236.833,123.833 234.5,124.5C 216.165,128 205.998,139 204,157.5C 214.189,143.626 227.689,135.126 244.5,132C 229.42,138.987 222.086,150.821 222.5,167.5C 222.396,171.947 222.896,176.28 224,180.5C 228.417,167.251 234.917,155.918 243.5,146.5C 238.585,154.661 236.585,163.495 237.5,173C 237.324,181.272 238.157,189.438 240,197.5C 243.951,211.972 246.951,226.639 249,241.5C 249.872,263.551 243.872,283.551 231,301.5C 219.43,317.573 205.93,331.906 190.5,344.5C 190.167,343.5 189.833,342.5 189.5,341.5C 197.002,308.815 197.169,276.149 190,243.5C 184.167,227.5 176.5,212.5 167,198.5C 160.094,191.795 151.927,187.295 142.5,185C 163.184,184.925 179.351,193.425 191,210.5C 191.654,211.696 192.154,211.696 192.5,210.5C 188.649,198.945 181.983,189.445 172.5,182C 162.75,176.632 152.75,176.132 142.5,180.5C 142.167,180.167 141.833,179.833 141.5,179.5C 156.907,163.314 175.574,157.814 197.5,163C 203.956,165.37 210.289,167.703 216.5,170C 207.253,160.415 196.253,153.748 183.5,150C 168.813,147.758 156.979,152.591 148,164.5C 145.083,168.666 142.416,172.999 140,177.5C 139.154,165.693 141.821,154.693 148,144.5C 155.348,132.15 164.515,121.316 175.5,112C 156.645,119.845 142.479,133.012 133,151.5C 131.927,157.449 131.26,163.449 131,169.5C 121.84,156.673 109.34,151.007 93.5,152.5C 92.6236,152.631 91.9569,152.298 91.5,151.5C 117.919,103.273 158.252,74.1066 212.5,64C 277.08,56.6233 329.58,78.1233 370,128.5C 380.265,143.028 388.432,158.695 394.5,175.5 Z"/></g>
<g><path style="opacity:1" fill="#17b0f3" d="M 100.5,67.5 C 103.394,68.8823 105.894,70.8823 108,73.5C 112.833,79.1667 117.667,84.8333 122.5,90.5C 126.518,86.6473 130.685,82.9806 135,79.5C 137.018,81.3501 138.851,83.3501 140.5,85.5C 134.157,91.8416 127.491,97.8416 120.5,103.5C 111.489,93.8206 102.822,83.8206 94.5,73.5C 96.8545,71.8122 98.8545,69.8122 100.5,67.5 Z"/></g>
<g><path style="opacity:1" fill="#fda826" d="M 410.5,112.5 C 411.097,112.265 411.43,111.765 411.5,111C 411.022,109.697 410.355,108.531 409.5,107.5C 409.611,106.883 409.944,106.383 410.5,106C 421.936,103.743 433.269,101.076 444.5,98C 451.857,90.3053 460.524,84.6386 470.5,81C 476.167,80.3333 481.833,80.3333 487.5,81C 472.036,98.7988 456.203,116.299 440,133.5C 439.814,129.484 439.814,125.484 440,121.5C 431.167,130.333 422.333,139.167 413.5,148C 412.552,148.483 411.552,148.649 410.5,148.5C 410.739,146.533 410.406,144.699 409.5,143C 405.167,142.667 400.833,142.333 396.5,142C 395.315,140.647 393.981,139.48 392.5,138.5C 399.001,136.547 405.667,135.38 412.5,135C 419.167,128.333 425.833,121.667 432.5,115C 425.011,114.209 417.678,113.376 410.5,112.5 Z"/></g>
<g><path style="opacity:1" fill="#19b0f3" d="M 409.5,107.5 C 410.355,108.531 411.022,109.697 411.5,111C 411.43,111.765 411.097,112.265 410.5,112.5C 409.373,113.122 408.373,113.955 407.5,115C 406.365,115.749 405.365,115.583 404.5,114.5C 401.151,109.14 397.318,104.14 393,99.5C 390.856,100.646 389.023,102.146 387.5,104C 391.014,108.685 394.347,113.519 397.5,118.5C 396.141,120.692 394.308,122.359 392,123.5C 387.76,118.683 383.76,113.683 380,108.5C 378.22,110.293 376.387,111.96 374.5,113.5C 378.5,119.167 382.5,124.833 386.5,130.5C 384.213,134.382 381.38,135.049 378,132.5C 372.622,124.911 367.122,117.411 361.5,110C 372.026,101.974 382.693,94.1402 393.5,86.5C 399.085,93.3501 404.418,100.35 409.5,107.5 Z"/></g>
<g><path style="opacity:1" fill="#17b0f3" d="M 84.5,87.5 C 92.0951,87.1501 96.4284,90.8168 97.5,98.5C 104.123,96.2294 108.956,98.2294 112,104.5C 112.665,109.181 111.665,113.514 109,117.5C 104.971,123.184 100.638,128.517 96,133.5C 85.4281,125.794 74.9281,117.96 64.5,110C 68.3333,104.833 72.1667,99.6667 76,94.5C 78.4412,91.5464 81.2745,89.2131 84.5,87.5 Z"/></g>
<g><path style="opacity:1" fill="#f7fcfe" d="M 82.5,98.5 C 85.8852,97.7896 88.2186,98.9563 89.5,102C 87.739,105.431 85.5724,108.597 83,111.5C 80.8416,110.174 79.0082,108.507 77.5,106.5C 79.1933,103.816 80.86,101.149 82.5,98.5 Z"/></g>
<g><path style="opacity:1" fill="#f7fcfe" d="M 96.5,106.5 C 99.8641,105.873 101.864,107.206 102.5,110.5C 101.357,114.788 99.1902,118.455 96,121.5C 93.6969,119.607 91.5302,117.607 89.5,115.5C 91.6004,112.289 93.9337,109.289 96.5,106.5 Z"/></g>
<g><path style="opacity:1" fill="#393a76" d="M 338.5,119.5 C 338.158,120.338 337.492,120.672 336.5,120.5C 322.048,116.848 307.381,115.681 292.5,117C 282.267,118.519 272.934,122.186 264.5,128C 273.521,127.181 282.521,127.847 291.5,130C 300.877,133.379 307.711,139.546 312,148.5C 316.309,161.694 316.642,175.027 313,188.5C 312.441,180.596 310.774,172.929 308,165.5C 299.301,144.797 283.801,133.297 261.5,131C 269.537,135.369 275.037,141.869 278,150.5C 279.619,164.979 275.952,177.979 267,189.5C 268.385,183.305 269.385,176.972 270,170.5C 271.575,156.556 268.242,143.89 260,132.5C 265.534,147.993 264.201,162.993 256,177.5C 252.497,181.693 249.664,186.193 247.5,191C 250.59,203.606 254.09,216.106 258,228.5C 264.663,251.383 265.163,274.383 259.5,297.5C 259.833,297.833 260.167,298.167 260.5,298.5C 307.612,260.397 352.279,219.397 394.5,175.5C 406.494,164.339 417.994,152.672 429,140.5C 378.673,203.521 323.839,263.021 264.5,319C 237.334,344.57 208,367.237 176.5,387C 163.08,395.028 148.746,400.695 133.5,404C 116.063,408.081 102.23,402.914 92,388.5C 86.3121,377.46 82.6455,365.794 81,353.5C 79.1284,335.823 79.1284,318.157 81,300.5C 80.6214,316.026 83.9548,330.693 91,344.5C 97.2305,354.725 106.23,361.058 118,363.5C 123.946,361.429 128.779,357.762 132.5,352.5C 164.598,320.613 179.765,281.947 178,236.5C 176.055,227.647 172.389,219.647 167,212.5C 158.268,203.099 148.935,194.432 139,186.5C 140.835,207.004 148.335,225.171 161.5,241C 145.129,236.127 135.129,225.293 131.5,208.5C 131.666,204.486 131.499,200.486 131,196.5C 130.59,197.901 130.09,199.234 129.5,200.5C 125.431,215.612 125.598,230.612 130,245.5C 111.76,227.018 110.927,208.352 127.5,189.5C 110.505,201.948 100.671,217.948 98,237.5C 93.7489,209.833 104.916,191.666 131.5,183C 112.196,179.549 95.363,184.382 81,197.5C 84.3771,186.122 91.8771,178.622 103.5,175C 109.167,174.333 114.833,174.333 120.5,175C 125.306,176.758 129.972,178.425 134.5,180C 122.446,166.306 107.446,157.806 89.5,154.5C 90.1571,153.684 91.4905,153.017 93.5,152.5C 109.34,151.007 121.84,156.673 131,169.5C 131.26,163.449 131.927,157.449 133,151.5C 142.479,133.012 156.645,119.845 175.5,112C 164.515,121.316 155.348,132.15 148,144.5C 141.821,154.693 139.154,165.693 140,177.5C 142.416,172.999 145.083,168.666 148,164.5C 156.979,152.591 168.813,147.758 183.5,150C 196.253,153.748 207.253,160.415 216.5,170C 210.289,167.703 203.956,165.37 197.5,163C 175.574,157.814 156.907,163.314 141.5,179.5C 141.833,179.833 142.167,180.167 142.5,180.5C 152.75,176.132 162.75,176.632 172.5,182C 181.983,189.445 188.649,198.945 192.5,210.5C 192.154,211.696 191.654,211.696 191,210.5C 179.351,193.425 163.184,184.925 142.5,185C 151.927,187.295 160.094,191.795 167,198.5C 176.5,212.5 184.167,227.5 190,243.5C 197.169,276.149 197.002,308.815 189.5,341.5C 189.833,342.5 190.167,343.5 190.5,344.5C 205.93,331.906 219.43,317.573 231,301.5C 243.872,283.551 249.872,263.551 249,241.5C 246.951,226.639 243.951,211.972 240,197.5C 238.157,189.438 237.324,181.272 237.5,173C 236.585,163.495 238.585,154.661 243.5,146.5C 234.917,155.918 228.417,167.251 224,180.5C 222.896,176.28 222.396,171.947 222.5,167.5C 222.086,150.821 229.42,138.987 244.5,132C 227.689,135.126 214.189,143.626 204,157.5C 205.998,139 216.165,128 234.5,124.5C 239.198,124.71 243.864,124.876 248.5,125C 246.192,124.009 243.859,123.176 241.5,122.5C 233.062,119.763 224.395,118.929 215.5,120C 207.085,121.365 199.085,123.699 191.5,127C 211.243,107.578 232.076,106.411 254,123.5C 253.626,120.725 252.626,118.058 251,115.5C 242.054,102.439 229.887,93.9393 214.5,90C 241.963,86.798 256.796,98.9647 259,126.5C 264.396,108.011 263.396,90.0106 256,72.5C 268.779,84.9778 272.612,99.6444 267.5,116.5C 275.157,109.664 284.157,106.331 294.5,106.5C 310.029,107.932 324.696,112.265 338.5,119.5 Z"/></g>
<g><path style="opacity:1" fill="#956c4f" d="M 338.5,119.5 C 340.14,120.32 341.807,121.153 343.5,122C 340.942,122.275 338.608,121.775 336.5,120.5C 337.492,120.672 338.158,120.338 338.5,119.5 Z"/></g>
<g><path style="opacity:1" fill="#c1853d" d="M 241.5,122.5 C 243.859,123.176 246.192,124.009 248.5,125C 243.864,124.876 239.198,124.71 234.5,124.5C 236.833,123.833 239.167,123.167 241.5,122.5 Z"/></g>
<g><path style="opacity:1" fill="#ef9f29" d="M 255.5,133.5 C 255.917,150.636 252.751,167.303 246,183.5C 243.277,170.826 244.277,158.493 249,146.5C 251.428,142.256 253.594,137.922 255.5,133.5 Z"/></g>
<g><path style="opacity:1" fill="#fba621" d="M 89.5,154.5 C 107.446,157.806 122.446,166.306 134.5,180C 129.972,178.425 125.306,176.758 120.5,175C 114.833,174.333 109.167,174.333 103.5,175C 91.8771,178.622 84.3771,186.122 81,197.5C 95.363,184.382 112.196,179.549 131.5,183C 104.916,191.666 93.7489,209.833 98,237.5C 100.671,217.948 110.505,201.948 127.5,189.5C 110.927,208.352 111.76,227.018 130,245.5C 125.598,230.612 125.431,215.612 129.5,200.5C 130.167,203.167 130.833,205.833 131.5,208.5C 135.129,225.293 145.129,236.127 161.5,241C 148.335,225.171 140.835,207.004 139,186.5C 148.935,194.432 158.268,203.099 167,212.5C 172.389,219.647 176.055,227.647 178,236.5C 179.765,281.947 164.598,320.613 132.5,352.5C 82.1316,306.753 64.2983,250.42 79,183.5C 82.015,173.619 85.515,163.952 89.5,154.5 Z"/></g>
<g><path style="opacity:1" fill="#9e7249" d="M 131.5,208.5 C 130.833,205.833 130.167,203.167 129.5,200.5C 130.09,199.234 130.59,197.901 131,196.5C 131.499,200.486 131.666,204.486 131.5,208.5 Z"/></g>
<g><path style="opacity:1" fill="#07aef3" d="M 399.5,201.5 C 407.918,274.162 381.251,329.995 319.5,369C 284.251,388.605 246.918,394.605 207.5,387C 240.597,362.583 271.93,335.917 301.5,307C 335.418,272.918 368.085,237.752 399.5,201.5 Z"/></g>
<g><path style="opacity:1" fill="#3f427d" d="M 128.5,409.5 C 140.86,409.071 144.193,414.237 138.5,425C 133.762,427.366 129.429,426.866 125.5,423.5C 122.219,417.836 123.219,413.17 128.5,409.5 Z"/></g>
<g><path style="opacity:1" fill="#42447f" d="M 214.5,409.5 C 219.993,408.178 222.493,410.178 222,415.5C 218.876,416.987 218.876,418.653 222,420.5C 222.71,419.027 223.876,418.36 225.5,418.5C 224.605,421.224 224.272,423.891 224.5,426.5C 220.129,426.801 215.796,426.301 211.5,425C 209.931,421.684 210.598,418.851 213.5,416.5C 212.073,413.884 212.406,411.551 214.5,409.5 Z"/></g>
<g><path style="opacity:1" fill="#434580" d="M 101.5,409.5 C 106.5,409.5 111.5,409.5 116.5,409.5C 116.5,410.5 116.5,411.5 116.5,412.5C 114.833,412.5 113.167,412.5 111.5,412.5C 111.5,417.167 111.5,421.833 111.5,426.5C 110.167,426.5 108.833,426.5 107.5,426.5C 107.5,421.833 107.5,417.167 107.5,412.5C 105.5,412.5 103.5,412.5 101.5,412.5C 101.5,411.5 101.5,410.5 101.5,409.5 Z"/></g>
<g><path style="opacity:1" fill="#41437e" d="M 150.5,409.5 C 151.833,409.5 153.167,409.5 154.5,409.5C 154.334,413.846 154.501,418.179 155,422.5C 157,423.833 159,423.833 161,422.5C 161.499,418.179 161.666,413.846 161.5,409.5C 162.833,409.5 164.167,409.5 165.5,409.5C 165.666,413.846 165.499,418.179 165,422.5C 163.607,425.366 161.274,426.699 158,426.5C 154.726,426.699 152.393,425.366 151,422.5C 150.501,418.179 150.334,413.846 150.5,409.5 Z"/></g>
<g><path style="opacity:1" fill="#444680" d="M 175.5,409.5 C 178.85,409.335 182.183,409.502 185.5,410C 190.462,413.303 190.795,417.136 186.5,421.5C 187.5,422.833 188.5,424.167 189.5,425.5C 188.277,426.614 186.944,426.781 185.5,426C 184.468,423.126 182.468,421.626 179.5,421.5C 179.5,423.167 179.5,424.833 179.5,426.5C 178.167,426.5 176.833,426.5 175.5,426.5C 175.5,420.833 175.5,415.167 175.5,409.5 Z"/></g>
<g><path style="opacity:1" fill="#3b3e7a" d="M 260.5,412.5 C 258.5,412.5 256.5,412.5 254.5,412.5C 254.5,417.167 254.5,421.833 254.5,426.5C 253.5,426.5 252.5,426.5 251.5,426.5C 251.5,421.833 251.5,417.167 251.5,412.5C 249.5,412.5 247.5,412.5 245.5,412.5C 245.5,411.5 245.5,410.5 245.5,409.5C 250.5,409.5 255.5,409.5 260.5,409.5C 260.5,410.5 260.5,411.5 260.5,412.5 Z"/></g>
<g><path style="opacity:1" fill="#3c3f7b" d="M 268.5,409.5 C 272.605,409.234 276.605,409.734 280.5,411C 283.37,414.815 283.036,418.315 279.5,421.5C 280.624,422.914 281.624,424.414 282.5,426C 281.167,426.667 279.833,426.667 278.5,426C 277.323,422.651 274.99,421.151 271.5,421.5C 271.5,423.167 271.5,424.833 271.5,426.5C 270.5,426.5 269.5,426.5 268.5,426.5C 268.5,420.833 268.5,415.167 268.5,409.5 Z"/></g>
<g><path style="opacity:1" fill="#42457f" d="M 296.5,409.5 C 298.144,409.286 299.644,409.62 301,410.5C 303.462,415.752 305.629,421.085 307.5,426.5C 306.167,426.5 304.833,426.5 303.5,426.5C 303.625,423.107 301.958,421.774 298.5,422.5C 297.167,422.833 295.833,423.167 294.5,423.5C 293.543,426.15 291.876,426.817 289.5,425.5C 292.228,420.308 294.561,414.975 296.5,409.5 Z"/></g>
<g><path style="opacity:1" fill="#40437e" d="M 313.5,410.5 C 314.884,409.199 316.384,409.199 318,410.5C 319.667,414.167 321.333,417.833 323,421.5C 324.798,417.578 326.298,413.578 327.5,409.5C 328.978,409.238 330.311,409.571 331.5,410.5C 329.333,415.5 327.167,420.5 325,425.5C 323.506,426.747 322.006,426.747 320.5,425.5C 318.392,420.289 316.058,415.289 313.5,410.5 Z"/></g>
<g><path style="opacity:1" fill="#3a3e7a" d="M 339.5,409.5 C 343.833,409.5 348.167,409.5 352.5,409.5C 352.5,410.5 352.5,411.5 352.5,412.5C 349.5,412.5 346.5,412.5 343.5,412.5C 343.5,413.833 343.5,415.167 343.5,416.5C 346.167,416.5 348.833,416.5 351.5,416.5C 351.5,417.5 351.5,418.5 351.5,419.5C 348.833,419.5 346.167,419.5 343.5,419.5C 343.5,420.833 343.5,422.167 343.5,423.5C 346.5,423.5 349.5,423.5 352.5,423.5C 352.5,424.5 352.5,425.5 352.5,426.5C 348.167,426.5 343.833,426.5 339.5,426.5C 339.5,420.833 339.5,415.167 339.5,409.5 Z"/></g>
<g><path style="opacity:1" fill="#383c79" d="M 361.5,409.5 C 362.833,409.5 364.167,409.5 365.5,409.5C 365.5,414.167 365.5,418.833 365.5,423.5C 368.167,423.5 370.833,423.5 373.5,423.5C 373.5,424.5 373.5,425.5 373.5,426.5C 369.5,426.5 365.5,426.5 361.5,426.5C 361.5,420.833 361.5,415.167 361.5,409.5 Z"/></g>
<g><path style="opacity:1" fill="#dadbe6" d="M 215.5,412.5 C 216.978,412.238 218.311,412.571 219.5,413.5C 217.537,416.194 216.203,415.861 215.5,412.5 Z"/></g>
<g><path style="opacity:1" fill="#f5f5f8" d="M 130.5,412.5 C 137.263,412.547 139.263,415.714 136.5,422C 129.922,424.757 127.089,422.59 128,415.5C 129.045,414.627 129.878,413.627 130.5,412.5 Z"/></g>
<g><path style="opacity:1" fill="#fcfcfd" d="M 179.5,413.5 C 181.5,413.5 183.5,413.5 185.5,413.5C 185.938,417.908 183.938,419.575 179.5,418.5C 179.5,416.833 179.5,415.167 179.5,413.5 Z"/></g>
<g><path style="opacity:1" fill="#9c9ebc" d="M 245.5,412.5 C 247.5,412.5 249.5,412.5 251.5,412.5C 251.5,417.167 251.5,421.833 251.5,426.5C 250.515,422.366 250.182,418.032 250.5,413.5C 248.585,413.784 246.919,413.451 245.5,412.5 Z"/></g>
<g><path style="opacity:1" fill="#b0b1c9" d="M 260.5,412.5 C 259.081,413.451 257.415,413.784 255.5,413.5C 255.818,418.032 255.485,422.366 254.5,426.5C 254.5,421.833 254.5,417.167 254.5,412.5C 256.5,412.5 258.5,412.5 260.5,412.5 Z"/></g>
<g><path style="opacity:1" fill="#e9e9f0" d="M 271.5,412.5 C 274.641,411.908 276.974,412.908 278.5,415.5C 278.392,416.442 278.059,417.275 277.5,418C 275.527,418.495 273.527,418.662 271.5,418.5C 271.5,416.5 271.5,414.5 271.5,412.5 Z"/></g>
<g><path style="opacity:1" fill="#ededf3" d="M 297.5,414.5 C 299.741,415.3 300.741,416.966 300.5,419.5C 299.022,419.762 297.689,419.429 296.5,418.5C 297.246,417.264 297.579,415.93 297.5,414.5 Z"/></g>
<g><path style="opacity:1" fill="#ededf3" d="M 214.5,419.5 C 216.912,419.244 218.579,420.244 219.5,422.5C 217.955,423.452 216.288,423.785 214.5,423.5C 214.5,422.167 214.5,420.833 214.5,419.5 Z"/></g>
</svg>
