<?xml version="1.0" encoding="UTF-8"?>
<svg version="1.1" xmlns="http://www.w3.org/2000/svg" width="500" height="500">
<path d="M0 0 C165 0 330 0 500 0 C500 165 500 330 500 500 C335 500 170 500 0 500 C0 335 0 170 0 0 Z " fill="#FEFEFE" transform="translate(0,0)"/>
<path d="M0 0 C2.1980588 0.01611552 4.3942803 0.00001064 6.59228516 -0.01904297 C20.34359314 -0.04111232 33.80644639 1.77161791 46.76025391 6.57861328 C47.59113525 6.87977051 48.4220166 7.18092773 49.27807617 7.49121094 C85.26145779 20.89334274 113.49825602 47.62159342 129.58447266 82.40283203 C133.69775391 91.61537565 133.69775391 91.61537565 133.69775391 95.39111328 C139.03211718 91.00152824 143.68402397 86.2845564 148.24462891 81.10205078 C152.54422341 76.35058807 157.12950499 71.88251315 161.69775391 67.39111328 C161.69775391 71.51855671 160.08024895 72.43805911 157.26025391 75.39111328 C153.7365964 79.14036508 150.36474274 82.94242838 147.13525391 86.95361328 C143.54226733 91.40538048 139.78247505 95.65364793 135.92822266 99.87939453 C133.70256039 102.38570072 131.6025383 104.96035721 129.51025391 107.57861328 C124.60539795 113.64718726 119.2702039 119.27817992 113.92041016 124.95361328 C111.01577931 128.03817702 108.20737807 131.19090219 105.43994141 134.39892578 C101.78730437 138.57570804 98.00929354 142.64016491 94.24414062 146.71533203 C93.20752466 147.83868726 92.17271086 148.96370802 91.13964844 150.09033203 C83.10132369 158.85493727 74.83250639 167.34954272 66.35791016 175.6940918 C62.80448445 179.2081267 59.3430305 182.73354672 56.08837891 186.52783203 C52.76302676 190.39631386 49.15632283 193.83746627 45.38525391 197.26611328 C40.92087966 201.37355791 36.52034654 205.50916951 32.26025391 209.82861328 C28.89620394 213.23139408 25.45006419 216.44561292 21.81494141 219.55517578 C19.29175935 221.74317498 16.84220871 224.00404441 14.38525391 226.26611328 C9.95062393 230.30587894 5.41680537 234.16867778 0.74462891 237.93017578 C-1.4709487 239.71968077 -3.66544284 241.52453395 -5.84912109 243.35205078 C-26.36046708 260.42909748 -48.40872146 275.50889422 -73.30224609 285.39111328 C-74.30126953 285.82423828 -75.30029297 286.25736328 -76.32958984 286.70361328 C-85.65942219 290.38947297 -96.663174 291.21015197 -106.39599609 288.54345703 C-114.88491626 284.67890232 -121.32754539 277.86326819 -125.20849609 269.44580078 C-127.54050965 262.93282006 -128.90422083 256.15508844 -130.30224609 249.39111328 C-130.48166748 248.66811035 -130.66108887 247.94510742 -130.84594727 247.20019531 C-131.47657864 243.31788148 -131.42506375 239.51666526 -131.39990234 235.59033203 C-131.3984874 234.75395706 -131.39707245 233.91758209 -131.39561462 233.05586243 C-131.39003793 230.39674229 -131.37748974 227.73770778 -131.36474609 225.07861328 C-131.35972808 223.27067179 -131.3551657 221.46272898 -131.35107422 219.65478516 C-131.34007613 215.23352844 -131.32282759 210.81233536 -131.30224609 206.39111328 C-130.97224609 206.39111328 -130.64224609 206.39111328 -130.30224609 206.39111328 C-130.13208984 207.49068359 -129.96193359 208.59025391 -129.78662109 209.72314453 C-127.89876263 221.44620091 -125.67874688 231.72828689 -118.57177734 241.51611328 C-117.30224609 243.39111328 -117.30224609 243.39111328 -116.30224609 246.39111328 C-114.45575097 247.50738149 -114.45575097 247.50738149 -112.30224609 248.39111328 C-111.68865234 248.73271484 -111.07505859 249.07431641 -110.44287109 249.42626953 C-103.7314738 253.08244148 -103.7314738 253.08244148 -96.30224609 253.39111328 C-93.27081718 251.38746335 -90.78263443 249.03642106 -88.30224609 246.39111328 C-89.61751442 243.45219898 -90.99485613 241.4944896 -93.35693359 239.31689453 C-93.96593506 238.74068359 -94.57493652 238.16447266 -95.20239258 237.57080078 C-95.85409424 236.95462891 -96.5057959 236.33845703 -97.17724609 235.70361328 C-121.23425152 212.25085184 -136.13516355 179.41962502 -136.64494324 145.77302551 C-136.66578002 143.49980152 -136.67457835 141.22692798 -136.67724609 138.95361328 C-136.67933075 138.22963348 -136.68141541 137.50565369 -136.68356323 136.75973511 C-136.67107304 98.464259 -121.26623768 64.35510487 -94.30224609 37.39111328 C-79.24373606 23.80847559 -62.00364747 13.06622314 -42.80224609 6.51611328 C-41.61308594 6.10498291 -41.61308594 6.10498291 -40.39990234 5.68554688 C-27.18297169 1.42705182 -13.82039696 -0.1198034 0 0 Z " fill="#393B75" transform="translate(247.30224609375,141.60888671875)"/>
<path d="M0 0 C2.1980588 0.01611552 4.3942803 0.00001064 6.59228516 -0.01904297 C20.34359314 -0.04111232 33.80644639 1.77161791 46.76025391 6.57861328 C47.59113525 6.87977051 48.4220166 7.18092773 49.27807617 7.49121094 C85.15393783 20.85329657 113.63773044 47.57502772 129.54931641 82.36767578 C134.2101345 92.89925499 134.2101345 92.89925499 134.69775391 96.39111328 C132.78489481 98.76487905 130.91572729 100.77711571 128.73291016 102.87939453 C128.10678329 103.50081833 127.48065643 104.12224213 126.83555603 104.76249695 C124.82184682 106.75481478 122.7912216 108.72890775 120.76025391 110.70361328 C119.42518317 112.02217569 118.09118554 113.34182557 116.75830078 114.66259766 C111.07476593 120.273526 105.37461718 125.82266285 99.29321289 131.00512695 C96.79351213 133.1766344 94.51111684 135.52200666 92.19775391 137.89111328 C88.53118795 141.64603023 84.73986615 145.13105665 80.77246094 148.56591797 C77.39036041 151.54127494 74.14794232 154.661206 70.88525391 157.76611328 C65.48343906 162.87207566 60.00903413 167.72845176 54.19384766 172.35986328 C51.6705206 174.41327497 49.27843118 176.56299385 46.88525391 178.76611328 C42.89002185 182.40394438 38.7580642 185.80656251 34.51025391 189.14111328 C33.94008545 189.58890137 33.36991699 190.03668945 32.7824707 190.49804688 C28.82960237 193.57332477 24.78810569 196.5013603 20.69775391 199.39111328 C21.60114498 190.87342604 21.60114498 190.87342604 22.21337891 187.81689453 C25.47687253 164.7355727 19.92725551 143.89293749 13.42822266 121.99536133 C9.796297 109.70382286 9.796297 109.70382286 9.69775391 105.39111328 C10.95556641 103.34423828 10.95556641 103.34423828 12.82275391 101.64111328 C21.12208432 93.12600028 22.93085244 83.10395439 22.86572266 71.64111328 C22.65797446 67.62142719 21.89937736 64.22128803 20.69775391 60.39111328 C23.52624075 62.8474308 24.81657313 65.42353588 26.32275391 68.82861328 C26.74814453 69.77607422 27.17353516 70.72353516 27.61181641 71.69970703 C32.07863174 82.77033927 29.85077045 95.2617156 26.69775391 106.39111328 C32.83180323 95.98971075 32.83180323 95.98971075 35.69775391 84.39111328 C35.81957031 83.15748047 35.81957031 83.15748047 35.94384766 81.89892578 C36.24837355 75.82686403 35.16631922 71.4087466 31.69775391 66.39111328 C29.2810862 63.64069662 29.2810862 63.64069662 26.69775391 61.39111328 C25.36442057 60.05777995 24.03108724 58.72444661 22.69775391 57.39111328 C35.00417076 58.23018716 45.58003196 64.75833881 53.88525391 73.57861328 C61.3624089 82.80529758 64.6958935 93.76425958 65.69775391 105.39111328 C67.97331367 93.90231157 68.69438006 79.79234094 62.69775391 69.39111328 C57.92320571 62.28368458 52.03935974 58.22662389 43.69775391 56.39111328 C42.18504785 56.2498221 40.66847263 56.14648511 39.15087891 56.07470703 C37.884375 56.01186523 37.884375 56.01186523 36.59228516 55.94775391 C35.28324219 55.8887793 35.28324219 55.8887793 33.94775391 55.82861328 C33.05958984 55.78542969 32.17142578 55.74224609 31.25634766 55.69775391 C29.07029428 55.59197713 26.88413301 55.48988782 24.69775391 55.39111328 C32.29742141 47.37453395 44.83013053 45.8033179 55.34228516 45.17236328 C66.02218207 44.91681241 76.21139779 46.47621347 86.69775391 48.39111328 C62.67381857 37.72002041 62.67381857 37.72002041 37.09619141 39.66064453 C33.09642528 41.6605276 29.41516378 43.91284003 25.69775391 46.39111328 C25.84212891 45.85744141 25.98650391 45.32376953 26.13525391 44.77392578 C28.70696829 34.45134998 28.74568698 25.14796849 23.16259766 15.82861328 C21.71960386 13.64536026 20.24130423 11.50412877 18.69775391 9.39111328 C19.18844213 11.48249317 19.73405586 13.49362397 20.45166016 15.52001953 C24.41670592 27.45346646 23.86335496 41.32225927 20.69775391 53.39111328 C18.62591779 50.2833591 18.13819682 48.31127226 17.38525391 44.70361328 C15.5752738 37.28448691 13.27962756 31.80844899 6.76025391 27.51611328 C1.24419773 24.27670452 -3.79621597 23.13588818 -10.17724609 23.26611328 C-11.32966797 23.28416016 -12.48208984 23.30220703 -13.66943359 23.32080078 C-14.97267578 23.35560547 -14.97267578 23.35560547 -16.30224609 23.39111328 C-15.61259766 23.61025391 -14.92294922 23.82939453 -14.21240234 24.05517578 C-1.19160501 28.44902509 9.075712 36.04246281 15.69775391 48.39111328 C15.69775391 49.05111328 15.69775391 49.71111328 15.69775391 50.39111328 C13.55269875 49.32601661 11.41860754 48.24541249 9.29541016 47.13720703 C8.04050781 46.48945313 8.04050781 46.48945313 6.76025391 45.82861328 C5.92623047 45.39419922 5.09220703 44.95978516 4.23291016 44.51220703 C-3.91087107 40.91087389 -13.99384221 41.56364599 -22.30224609 44.39111328 C-27.35954134 46.66649413 -31.1509664 48.73356154 -34.30224609 53.39111328 C-33.63837891 53.11396484 -32.97451172 52.83681641 -32.29052734 52.55126953 C-30.96601563 52.00792969 -30.96601563 52.00792969 -29.61474609 51.45361328 C-28.30957031 50.91414063 -28.30957031 50.91414063 -26.97802734 50.36376953 C-15.47882648 46.18376805 -1.70402688 47.70036343 9.69775391 51.39111328 C9.69775391 51.72111328 9.69775391 52.05111328 9.69775391 52.39111328 C8.63556641 52.41689453 7.57337891 52.44267578 6.47900391 52.46923828 C-1.40340892 52.75155165 -7.48260984 53.0632672 -14.30224609 57.39111328 C-14.98802734 57.68115234 -15.67380859 57.97119141 -16.38037109 58.27001953 C-18.79704043 59.67974331 -19.23704678 60.83371666 -20.30224609 63.39111328 C-20.70443359 64.16068359 -21.10662109 64.93025391 -21.52099609 65.72314453 C-24.02083246 70.56276676 -26.03462384 75.09014751 -27.30224609 80.39111328 C-31.9626799 78.58707439 -31.9626799 78.58707439 -34.07568359 77.36767578 C-41.74289949 73.22561662 -51.481148 72.811608 -59.86474609 75.08642578 C-61.87597961 76.02133511 -63.53145337 77.05987904 -65.30224609 78.39111328 C-66.1665625 78.97505859 -66.1665625 78.97505859 -67.04833984 79.57080078 C-72.1812021 83.43473718 -75.30830631 88.59378026 -78.70068359 93.97705078 C-79.22919922 94.77369141 -79.75771484 95.57033203 -80.30224609 96.39111328 C-80.63224609 96.39111328 -80.96224609 96.39111328 -81.30224609 96.39111328 C-82.36696183 80.42037718 -73.7413001 65.80009913 -63.65771484 53.98095703 C-60.01208375 49.97257658 -56.21539001 46.13774043 -52.30224609 42.39111328 C-67.15789725 50.345735 -79.90495375 60.06391616 -86.59130859 76.00830078 C-87.89611634 80.38155752 -88.13248257 84.84993911 -88.30224609 89.39111328 C-88.71474609 89.01599609 -89.12724609 88.64087891 -89.55224609 88.25439453 C-99.92276239 79.0644504 -108.34103122 75.97846654 -122.30224609 76.39111328 C-118.29049384 67.51806124 -113.42761024 59.93835466 -107.30224609 52.39111328 C-106.62500488 51.54347412 -106.62500488 51.54347412 -105.93408203 50.67871094 C-80.07744474 18.50452413 -41.37710909 -0.35868132 0 0 Z " fill="#FBA621" transform="translate(247.30224609375,141.60888671875)"/>
<path d="M0 0 C13.59120044 0.27680653 25.84452807 11.49444009 35.0625 20.3125 C34.0725 20.8075 34.0725 20.8075 33.0625 21.3125 C31.62252885 20.72044575 30.2096602 20.0620142 28.8125 19.375 C21.49332848 16.35002449 13.77257405 15.8817517 6.15625 18.1953125 C-1.81599701 21.82124412 -6.44768887 27.36348575 -9.9375 35.3125 C-9.11958984 34.62414062 -9.11958984 34.62414062 -8.28515625 33.921875 C-0.31360683 27.43562283 7.44906676 23.14725204 17.92578125 23.21484375 C19.25512695 23.21967773 19.25512695 23.21967773 20.61132812 23.22460938 C21.52333984 23.23298828 22.43535156 23.24136719 23.375 23.25 C24.30634766 23.25451172 25.23769531 23.25902344 26.19726562 23.26367188 C28.48574373 23.27540766 30.77408808 23.29182637 33.0625 23.3125 C30.38447506 25.09784996 28.49237093 25.88074513 25.5 26.875 C16.8105007 30.28464248 9.90349225 36.83030877 6.0625 45.3125 C4.05668607 50.26931355 3.81408187 54.43748251 3.9375 59.6875 C3.94652344 60.42355469 3.95554688 61.15960938 3.96484375 61.91796875 C3.98819856 63.7162888 4.02406164 65.51443911 4.0625 67.3125 C4.48208984 65.77142578 4.48208984 65.77142578 4.91015625 64.19921875 C8.68523606 50.91408909 14.22853715 40.34080238 25.0625 31.3125 C26.0525 30.9825 27.0425 30.6525 28.0625 30.3125 C28.0625 30.9725 28.0625 31.6325 28.0625 32.3125 C27.19625 33.0859375 27.19625 33.0859375 26.3125 33.875 C20.93018607 39.70584009 19.27860181 46.34583146 19.5390625 54.1796875 C20.83334675 61.92607533 25.1078576 68.37770008 30.0625 74.3125 C29.918125 73.79945313 29.77375 73.28640625 29.625 72.7578125 C26.79723112 61.09326587 26.33767829 47.50582763 31.0625 36.3125 C31.3925 36.3125 31.7225 36.3125 32.0625 36.3125 C32.08828125 36.99054688 32.1140625 37.66859375 32.140625 38.3671875 C32.69931879 47.53484467 34.7665437 55.75436595 41.14453125 62.640625 C47.89358242 68.63025965 47.89358242 68.63025965 56.0625 71.3125 C55.20978516 70.10980469 55.20978516 70.10980469 54.33984375 68.8828125 C45.88849982 56.57875808 38.76431851 42.51975613 39.0625 27.3125 C45.03226152 30.92577671 49.97079394 35.56942987 55.0625 40.3125 C56.02929688 41.18068359 56.02929688 41.18068359 57.015625 42.06640625 C66.20108043 50.65191076 71.95991664 61.40777469 72.4609375 74.046875 C72.47380922 76.05205724 72.46543459 78.05747103 72.4375 80.0625 C72.42734863 81.12090088 72.41719727 82.17930176 72.40673828 83.26977539 C72.24747049 91.32884928 71.45963263 98.57835511 69.0625 106.3125 C68.86382324 106.96202637 68.66514648 107.61155273 68.46044922 108.28076172 C61.41514666 130.87322634 49.53131808 149.52335921 34.0625 167.3125 C8.01674531 146.00233708 -11.23087394 115.31314466 -15.64892578 81.52246094 C-16.26653524 74.65247008 -16.30441119 67.76787748 -16.3125 60.875 C-16.31458466 60.1510202 -16.31666931 59.42704041 -16.31881714 58.68112183 C-16.315394 48.1856164 -14.3493021 1.5265215 0 0 Z " fill="#FBA621" transform="translate(126.9375,219.6875)"/>
<path d="M0 0 C0.33 0 0.66 0 1 0 C6.44880405 36.73548539 -2.95338567 74.16291538 -25 104 C-28.80218563 108.8413477 -32.85760823 113.44909444 -37 118 C-37.92232422 119.03060547 -37.92232422 119.03060547 -38.86328125 120.08203125 C-59.8063043 142.27228148 -93.48994548 158.0739961 -124.00952148 159.18725586 C-127.67083333 159.27374602 -131.3300449 159.28147732 -134.9921875 159.26074219 C-137.26068427 159.24994917 -139.52840098 159.26073717 -141.796875 159.2734375 C-143.26562671 159.27211679 -144.73437795 159.26955623 -146.203125 159.265625 C-147.50926758 159.26336914 -148.81541016 159.26111328 -150.16113281 159.25878906 C-154.36956917 158.97508628 -157.94746241 158.13453026 -162 157 C-158.64794527 153.51361885 -155.21613726 150.53835392 -151.3125 147.6875 C-138.40737354 138.13455883 -126.12140625 127.8249084 -114.2421875 117.02734375 C-112.28791576 115.26032801 -110.30940263 113.53086471 -108.3125 111.8125 C-94.65427435 99.85332417 -81.84248187 87.0022131 -69.02685547 74.15722656 C-66.48788246 71.612503 -63.94436856 69.07237254 -61.39955139 66.53349495 C-59.40727743 64.54485691 -57.41741842 62.55381608 -55.42825317 60.56206894 C-54.04327254 59.17611543 -52.65631124 57.79214208 -51.26928711 56.40823364 C-46.85928109 51.98191165 -42.5748959 47.5067551 -38.51461792 42.75616455 C-35.8138019 39.62463066 -32.95959238 36.63501411 -30.125 33.625 C-21.86546048 24.80720702 -13.81250101 15.84708594 -5.98388672 6.64428711 C-4.04290797 4.36486981 -2.11797905 2.11797905 0 0 Z " fill="#01AEF3" transform="translate(386,259)"/>
<path d="M0 0 C-1.19625 0.515625 -2.3925 1.03125 -3.625 1.5625 C-10.22594771 4.8688154 -14.2035103 10.22955124 -17 17 C-18.15006793 21.39405266 -18.14934206 25.73860423 -18.125 30.25 C-18.12886719 30.9821875 -18.13273437 31.714375 -18.13671875 32.46875 C-18.45817463 36.02859604 -18.45817463 36.02859604 -17 39 C-16.58041016 37.78376953 -16.58041016 37.78376953 -16.15234375 36.54296875 C-9.09381663 17.04690832 -9.09381663 17.04690832 -3 14 C-3.20894897 14.89682495 -3.20894897 14.89682495 -3.42211914 15.81176758 C-7.47269137 34.35458671 -4.5393753 51.87182715 0 70 C5.77014704 93.79234406 5.58105626 114.09528236 -7.14453125 135.75 C-11.80482866 143.340862 -17.18530139 150.2536646 -23 157 C-23.91072266 158.09441406 -23.91072266 158.09441406 -24.83984375 159.2109375 C-28.8547323 163.96325456 -33.24141574 168.00502418 -38 172 C-39.31261933 173.14569664 -40.62512664 174.29152162 -41.9375 175.4375 C-45 178 -45 178 -46 178 C-45.88157492 176.2703706 -45.75471735 174.54131918 -45.625 172.8125 C-45.55539063 171.84957031 -45.48578125 170.88664063 -45.4140625 169.89453125 C-45.18338598 167.72486622 -44.91863105 165.55563256 -44.52563477 163.40942383 C-42.80749049 153.87076076 -42.66131519 144.50434703 -42.68432617 134.84399414 C-42.68749061 132.07072753 -42.66392902 129.29852661 -42.63867188 126.52539062 C-42.60232865 116.24393153 -43.26448918 106.96425068 -46 97 C-46.2902002 95.87835449 -46.58040039 94.75670898 -46.87939453 93.60107422 C-49.09534386 85.26883697 -52.88888205 78.15944324 -57.07763672 70.70117188 C-58.33871065 68.37529491 -59.40971285 65.97221939 -60.5 63.5625 C-65.27532208 54.01185584 -73.26363628 48.63394915 -83.19140625 45.25390625 C-84.78107102 44.78824687 -86.38895815 44.38524914 -88 44 C-88 43.67 -88 43.34 -88 43 C-75.98382913 41.94594992 -64.79800257 46.46646205 -55.453125 53.796875 C-51.61825652 57.24092885 -48.23629368 60.99404335 -45 65 C-51.95012456 49.7394436 -51.95012456 49.7394436 -65.07421875 39.87109375 C-72.13423736 37.76911224 -79.88183077 38.37070048 -87 40 C-81.11336913 31.75871678 -72.62157795 27.60194423 -63 25 C-62.3709375 24.814375 -61.741875 24.62875 -61.09375 24.4375 C-48.94320853 21.89858089 -37.20461992 25.6905308 -26 30 C-28.97 27.36 -31.94 24.72 -35 22 C-29.31826607 12.68195635 -12.24882481 -4.71108646 0 0 Z " fill="#FAA521" transform="translate(255,201)"/>
<path d="M0 0 C1.75570312 0.01353516 1.75570312 0.01353516 3.546875 0.02734375 C4.43890625 0.03894531 5.3309375 0.05054688 6.25 0.0625 C2.83197326 4.88279412 -0.74299018 9.19238831 -4.984375 13.3046875 C-7.34743508 15.65729156 -9.4920048 18.17060489 -11.66796875 20.6953125 C-14.81936608 24.2783271 -18.07695029 27.7615524 -21.32446289 31.25732422 C-24.78473255 34.99084511 -28.16031725 38.78217913 -31.4453125 42.671875 C-32.75 44.0625 -32.75 44.0625 -34.75 45.0625 C-34.75 42.0925 -34.75 39.1225 -34.75 36.0625 C-35.40597168 36.72894531 -36.06194336 37.39539063 -36.73779297 38.08203125 C-39.16772674 40.54599529 -41.60206041 43.0054342 -44.03955078 45.46191406 C-45.09474509 46.5271826 -46.14813964 47.59423697 -47.19970703 48.66308594 C-48.70919727 50.19676216 -50.22498699 51.72395568 -51.7421875 53.25 C-52.65339355 54.17167969 -53.56459961 55.09335938 -54.50341797 56.04296875 C-56.75 58.0625 -56.75 58.0625 -58.75 58.0625 C-59.08 56.4125 -59.41 54.7625 -59.75 53.0625 C-60.58144531 53.10890625 -61.41289062 53.1553125 -62.26953125 53.203125 C-63.35621094 53.23921875 -64.44289063 53.2753125 -65.5625 53.3125 C-66.64144531 53.35890625 -67.72039062 53.4053125 -68.83203125 53.453125 C-71.75 53.0625 -71.75 53.0625 -73.63671875 51.046875 C-74.00410156 50.39203125 -74.37148438 49.7371875 -74.75 49.0625 C-73.7084375 49.0315625 -72.666875 49.000625 -71.59375 48.96875 C-58.1164983 47.92546222 -51.55782433 41.45717451 -42.94897461 31.48364258 C-42.55331299 31.01466553 -42.15765137 30.54568848 -41.75 30.0625 C-42.37044189 30.0531543 -42.99088379 30.04380859 -43.63012695 30.03417969 C-46.44172677 29.98049005 -49.2516598 29.89684354 -52.0625 29.8125 C-53.03896484 29.79832031 -54.01542969 29.78414062 -55.02148438 29.76953125 C-55.95927734 29.73730469 -56.89707031 29.70507812 -57.86328125 29.671875 C-58.72735596 29.65092773 -59.59143066 29.62998047 -60.48168945 29.60839844 C-62.75 29.0625 -62.75 29.0625 -64.55541992 27.14941406 C-65.75 25.0625 -65.75 25.0625 -65.75 23.0625 C-64.80793701 22.89758057 -63.86587402 22.73266113 -62.89526367 22.56274414 C-59.34175455 21.93127695 -55.79791609 21.25502734 -52.25512695 20.56616211 C-50.73196089 20.27622625 -49.20653733 19.99786575 -47.67895508 19.73217773 C-38.11529382 18.05924322 -31.39056067 16.13452516 -24.13183594 9.23022461 C-17.03910856 2.7750866 -9.41185042 -0.0941185 0 0 Z " fill="#FDA925" transform="translate(454.75,155.9375)"/>
<path d="M0 0 C4.04610553 0.75864479 5.51352312 2.34470639 8 5.5625 C8 6.8825 8 8.2025 8 9.5625 C8.66 9.2325 9.32 8.9025 10 8.5625 C12.8125 8.1875 12.8125 8.1875 16 8.5625 C18.8125 11 18.8125 11 21 13.5625 C21.495 14.0575 21.495 14.0575 22 14.5625 C22.3304397 23.15393212 16.92404904 29.03165601 12 35.5625 C11.40960938 36.35140625 10.81921875 37.1403125 10.2109375 37.953125 C9.81132812 38.48421875 9.41171875 39.0153125 9 39.5625 C5.25902373 38.22566698 2.39479973 36.56348959 -0.7578125 34.15625 C-1.63050781 33.49496094 -2.50320312 32.83367187 -3.40234375 32.15234375 C-4.30082031 31.46269531 -5.19929688 30.77304688 -6.125 30.0625 C-7.91883712 28.69734657 -9.71308993 27.33273915 -11.5078125 25.96875 C-12.29816895 25.36353516 -13.08852539 24.75832031 -13.90283203 24.13476562 C-15.56288351 22.89021015 -17.27368327 21.71337782 -19 20.5625 C-17.57222911 16.35553872 -15.5117051 13.41277893 -12.6875 10 C-11.54861328 8.60587891 -11.54861328 8.60587891 -10.38671875 7.18359375 C-4.63720094 0.86947518 -4.63720094 0.86947518 0 0 Z " fill="#09B0F3" transform="translate(121,143.4375)"/>
<path d="M0 0 C2.46800047 1.15173355 4.04783565 2.04783565 6 4 C6.22705078 6.52197266 6.22705078 6.52197266 6.1953125 9.6640625 C6.18886719 10.78554687 6.18242187 11.90703125 6.17578125 13.0625 C6.15902344 14.238125 6.14226562 15.41375 6.125 16.625 C6.11597656 17.80835938 6.10695313 18.99171875 6.09765625 20.2109375 C6.07402812 23.14082523 6.04108514 26.0703134 6 29 C6.77085937 28.07316406 7.54171875 27.14632812 8.3359375 26.19140625 C9.34878032 24.98162177 10.3618109 23.77199448 11.375 22.5625 C12.13683594 21.64500977 12.13683594 21.64500977 12.9140625 20.70898438 C16.7734375 16.11328125 16.7734375 16.11328125 19 15 C21.475 16.98 21.475 16.98 24 19 C22.46401812 22.45595924 20.41603323 25.10076012 18 28 C17.20722656 28.95519531 16.41445313 29.91039062 15.59765625 30.89453125 C14.73182982 31.92973684 13.86594211 32.96489117 13 34 C12.06085107 35.12861772 11.12205369 36.25752806 10.18359375 37.38671875 C7.79317993 40.26126702 5.3978196 43.13162708 3 46 C0.16716626 44.85497009 -1.12486441 44.32543697 -3 42 C-3.78847047 37.74194845 -3.56206474 33.56208211 -3.375 29.25 C-3.34792969 28.07566406 -3.32085937 26.90132812 -3.29296875 25.69140625 C-3.2222878 22.79348724 -3.11467129 19.89651184 -3 17 C-6.96 21.62 -10.92 26.24 -15 31 C-16.98 29.35 -18.96 27.7 -21 26 C-18.45926666 21.30595011 -15.14104815 17.53389222 -11.625 13.5625 C-10.49165233 12.27260544 -9.35883271 10.98224671 -8.2265625 9.69140625 C-7.68418945 9.07410645 -7.14181641 8.45680664 -6.58300781 7.82080078 C-4.34625213 5.24804879 -2.17000442 2.62920011 0 0 Z " fill="#08B0F3" transform="translate(350,113)"/>
<path d="M0 0 C2.33944736 0.28730055 4.6739143 0.61936779 7 1 C8.28497537 4.85492611 7.4052209 6.40346836 6.0625 10.1875 C5.68222656 11.27417969 5.30195313 12.36085938 4.91015625 13.48046875 C4.60980469 14.31191406 4.30945313 15.14335938 4 16 C10.98533796 17.56901859 10.98533796 17.56901859 18 19 C18.13277344 18.38511719 18.26554687 17.77023438 18.40234375 17.13671875 C18.66724609 15.92435547 18.66724609 15.92435547 18.9375 14.6875 C19.19853516 13.48673828 19.19853516 13.48673828 19.46484375 12.26171875 C20 10 20 10 21 7 C25.455 7.99 25.455 7.99 30 9 C27.97518105 15.90674439 25.77234907 22.71428315 23.375 29.5 C23.06304687 30.39203125 22.75109375 31.2840625 22.4296875 32.203125 C20.13632015 38.72735969 20.13632015 38.72735969 19 41 C15.535 40.505 15.535 40.505 12 40 C10.30337483 35.10113527 12.26921299 31.70774067 14 27 C9.71 25.35 5.42 23.7 1 22 C0.690625 23.423125 0.38125 24.84625 0.0625 26.3125 C-0.51199363 28.95517072 -1.14302306 31.42906918 -2 34 C-7.75 33.125 -7.75 33.125 -10 32 C-9.4552538 24.90978779 -7.39759281 18.73132895 -5 12.0625 C-4.63132812 11.00998047 -4.26265625 9.95746094 -3.8828125 8.87304688 C-1.15089598 1.15089598 -1.15089598 1.15089598 0 0 Z " fill="#09B0F3" transform="translate(292,87)"/>
<path d="M0 0 C4.15509209 1.3850307 5.62686829 4.34004992 8 7.8125 C8.87469118 9.06922541 9.74968357 10.32574125 10.625 11.58203125 C11.23782837 12.47293457 11.23782837 12.47293457 11.86303711 13.38183594 C12.80581648 14.72363144 13.80449507 16.02594747 14.81640625 17.31640625 C16 19 16 19 15.9375 21.125 C15 23 15 23 11 25 C7.7 20.71 4.4 16.42 1 12 C-0.98 12.99 -0.98 12.99 -3 14 C-1.6744419 17.62276315 -0.05653045 20.63505348 2.125 23.8125 C2.66382813 24.60269531 3.20265625 25.39289063 3.7578125 26.20703125 C4.16773438 26.79871094 4.57765625 27.39039063 5 28 C3.68 28.99 2.36 29.98 1 31 C-2.39187279 29.58426179 -4.09697541 27.95769034 -6.25 25 C-6.77078125 24.29875 -7.2915625 23.5975 -7.828125 22.875 C-9 21 -9 21 -9 19 C-10.65 19.99 -12.3 20.98 -14 22 C-12.65070536 25.83663072 -10.92248975 28.65172569 -8.375 31.8125 C-7.74335938 32.60269531 -7.11171875 33.39289063 -6.4609375 34.20703125 C-5.97882813 34.79871094 -5.49671875 35.39039063 -5 36 C-5.75 37.9375 -5.75 37.9375 -7 40 C-9.078125 40.62890625 -9.078125 40.62890625 -11 41 C-15 35.66666667 -19 30.33333333 -23 25 C-23.57580811 24.32163086 -24.15161621 23.64326172 -24.74487305 22.94433594 C-25.15906494 22.30270508 -25.57325684 21.66107422 -26 21 C-24.65719189 16.97157566 -21.99167324 15.60817922 -18.625 13.3125 C-17.34967889 12.42792115 -16.07494681 11.54249252 -14.80078125 10.65625 C-13.84292725 9.99302734 -13.84292725 9.99302734 -12.86572266 9.31640625 C-11.1251611 8.08831047 -9.42293087 6.82453172 -7.73046875 5.53125 C-6.28607422 4.43296875 -6.28607422 4.43296875 -4.8125 3.3125 C-3.95269531 2.64863281 -3.09289062 1.98476562 -2.20703125 1.30078125 C-1.47871094 0.87152344 -0.75039063 0.44226563 0 0 Z " fill="#08B0F3" transform="translate(382,143)"/>
<path d="M0 0 C0.55945313 0.32355469 1.11890625 0.64710937 1.6953125 0.98046875 C1.3653125 3.29046875 1.0353125 5.60046875 0.6953125 7.98046875 C-3.9246875 7.98046875 -8.5446875 7.98046875 -13.3046875 7.98046875 C-13.3046875 8.97046875 -13.3046875 9.96046875 -13.3046875 10.98046875 C-10.92331657 12.17115421 -9.20776729 12.15227512 -6.5546875 12.29296875 C-1.26005894 12.76036722 1.89695995 14.1821162 5.6953125 17.98046875 C6.13701369 21.03451698 6.16307923 23.92959019 5.6953125 26.98046875 C3.13292554 30.32580729 0.59990611 32.45229159 -3.3046875 33.98046875 C-6.6171875 34.24609375 -6.6171875 34.24609375 -10.3046875 34.23046875 C-11.5215625 34.235625 -12.7384375 34.24078125 -13.9921875 34.24609375 C-17.05757541 34.00028434 -18.74131702 33.59539215 -21.3046875 31.98046875 C-20.9746875 29.67046875 -20.6446875 27.36046875 -20.3046875 24.98046875 C-19.5415625 25.14546875 -18.7784375 25.31046875 -17.9921875 25.48046875 C-13.08322901 26.14609024 -8.25033636 26.05966953 -3.3046875 25.98046875 C-3.65255458 24.0051013 -3.65255458 24.0051013 -4.3046875 21.98046875 C-7.90173084 20.18194708 -12.17232896 20.28315158 -16.140625 19.87109375 C-20.06486599 18.76649258 -21.19775305 17.41248728 -23.3046875 13.98046875 C-23.8671875 10.48046875 -23.8671875 10.48046875 -23.3046875 6.98046875 C-17.77352719 -0.17750341 -8.64477845 -3.82421555 0 0 Z " fill="#0AB1F3" transform="translate(228.3046875,85.01953125)"/>
<path d="M0 0 C3.50386447 1.38988244 6.74832109 3.09922736 10 5 C8.21875 9.875 8.21875 9.875 6.25 11 C3.01887454 11 0.85145162 9.45482225 -2 8 C-4.75146274 7.74715633 -4.75146274 7.74715633 -7 8 C-6.95478029 9.91980725 -6.95478029 9.91980725 -6 12 C-3.30545834 13.69681758 -3.30545834 13.69681758 -0.0625 15.0625 C5.79693704 17.69540556 5.79693704 17.69540556 8 21 C8.78993519 27.99656881 8.78993519 27.99656881 5.6875 31.9375 C0.84522842 35.65366191 -4.10689552 35.65382076 -10 35 C-14.05544507 33.56426358 -17.43531669 31.37645554 -21 29 C-19.125 24.25 -19.125 24.25 -18 22 C-15.67311328 23.16344336 -13.39168332 24.34383117 -11.125 25.625 C-7.79217675 27.09144223 -5.59578599 27.25684186 -2 27 C-2 25.68 -2 24.36 -2 23 C-2.91523438 22.60167969 -3.83046875 22.20335938 -4.7734375 21.79296875 C-5.96195312 21.26316406 -7.15046875 20.73335937 -8.375 20.1875 C-9.55835938 19.66542969 -10.74171875 19.14335938 -11.9609375 18.60546875 C-15 17 -15 17 -17 14 C-17.66129597 8.87495622 -17.66129597 8.87495622 -17 6 C-12.4412754 0.28061852 -6.9226585 -0.9785412 0 0 Z " fill="#09B0F3" transform="translate(271,82)"/>
<path d="M0 0 C0 2.31 0 4.62 0 7 C-1.01320312 7.09087891 -1.01320312 7.09087891 -2.046875 7.18359375 C-2.93890625 7.26738281 -3.8309375 7.35117188 -4.75 7.4375 C-5.63171875 7.51871094 -6.5134375 7.59992188 -7.421875 7.68359375 C-9.69350452 7.96238465 -11.79851823 8.38790577 -14 9 C-13.67 10.32 -13.34 11.64 -13 13 C-11.97519531 12.96519531 -10.95039063 12.93039063 -9.89453125 12.89453125 C-8.53387064 12.86637965 -7.1731922 12.83908096 -5.8125 12.8125 C-5.13896484 12.78736328 -4.46542969 12.76222656 -3.77148438 12.73632812 C0.70855667 12.67076655 3.46037634 13.22395146 7 16 C9.35620437 19.53430656 9.48991613 20.83571287 9 25 C6.93793371 29.12413258 4.47584992 32.12465784 0.34765625 34.3203125 C-4.91881976 35.84504931 -10.57667797 35.27079 -16 35 C-16 32.69 -16 30.38 -16 28 C-15.25234375 27.95101562 -14.5046875 27.90203125 -13.734375 27.8515625 C-12.74953125 27.77679688 -11.7646875 27.70203125 -10.75 27.625 C-9.77546875 27.55539063 -8.8009375 27.48578125 -7.796875 27.4140625 C-5.10366811 27.01534751 -3.33036721 26.36492937 -1 25 C-1 24.01 -1 23.02 -1 22 C-2.09699219 22.04640625 -3.19398438 22.0928125 -4.32421875 22.140625 C-5.7786185 22.1781579 -7.23304783 22.21455643 -8.6875 22.25 C-9.40873047 22.28351563 -10.12996094 22.31703125 -10.87304688 22.3515625 C-14.67569586 22.42101728 -16.59642691 22.23755294 -19.953125 20.26171875 C-22.72832204 17.19523194 -22.97682608 15.19565902 -23.1875 11.1796875 C-22.88305845 7.64055452 -21.67376059 6.28247855 -19 4 C-12.92964525 -0.33189635 -7.28006046 -0.48176871 0 0 Z " fill="#08B0F3" transform="translate(195,94)"/>
<path d="M0 0 C2.94593662 0.13673124 3.99932494 0.99935931 6.1484375 3.0390625 C7.25058594 4.31910156 7.25058594 4.31910156 8.375 5.625 C9.15488281 6.5221875 9.93476563 7.419375 10.73828125 8.34375 C11.48464844 9.2203125 12.23101562 10.096875 13 11 C13.63292969 11.7321875 14.26585937 12.464375 14.91796875 13.21875 C16.28683875 14.80546867 17.64481536 16.40157709 19 18 C23.08963819 15.71461395 26.46362104 13.04293074 30 10 C32.475 11.98 32.475 11.98 35 14 C33.59473786 17.27655508 31.97082527 19.15432686 29.25 21.4375 C28.19039062 22.3346875 28.19039062 22.3346875 27.109375 23.25 C26.41328125 23.8275 25.7171875 24.405 25 25 C24.38640625 25.515625 23.7728125 26.03125 23.140625 26.5625 C21.76577406 27.71475603 20.38373037 28.85842244 19 30 C15.32329416 28.48947977 13.28125538 26.3511385 10.6875 23.375 C9.90503906 22.48296875 9.12257812 21.5909375 8.31640625 20.671875 C7.16978516 19.34929687 7.16978516 19.34929687 6 18 C4.99259766 16.86304688 4.99259766 16.86304688 3.96484375 15.703125 C1.17383645 12.55064967 -1.50347651 9.39347804 -4 6 C-2.84826645 3.53199953 -1.95216435 1.95216435 0 0 Z " fill="#08B0F3" transform="translate(132,127)"/>
<path d="M0 0 C2.92879371 0.62759865 5.36095629 1.58622659 8 3 C6.55454275 6.8617903 4.76719216 10.36725026 2.7421875 13.95703125 C1.80439453 15.62475586 1.80439453 15.62475586 0.84765625 17.32617188 C0.1901709 18.48831901 -0.46738203 19.65042791 -1.125 20.8125 C-1.79064641 21.99398189 -2.45601384 23.175621 -3.12109375 24.35742188 C-4.74465934 27.23983905 -6.37105015 30.12062331 -8 33 C-13.75 31.375 -13.75 31.375 -16 28 C-14.08804162 24.45577235 -12.16959761 20.91509513 -10.25 17.375 C-9.71117187 16.37597656 -9.17234375 15.37695312 -8.6171875 14.34765625 C-5.93549745 9.40942214 -3.23314097 4.59859371 0 0 Z " fill="#09B0F3" transform="translate(332,103)"/>
<path d="M0 0 C2.40656646 1.00615529 3.02547382 1.88140488 4.34326172 4.10742188 C4.95548584 5.11736206 4.95548584 5.11736206 5.58007812 6.14770508 C5.99950684 6.86659912 6.41893555 7.58549316 6.85107422 8.32617188 C7.73006039 9.78914646 8.61026321 11.25139075 9.49169922 12.71289062 C9.91515625 13.42106934 10.33861328 14.12924805 10.77490234 14.85888672 C12.71885542 18.04270254 14.85394601 21.08815183 17.01513672 24.12695312 C17.97607422 25.82617188 17.97607422 25.82617188 17.97607422 28.82617188 C15.72607422 30.63867188 15.72607422 30.63867188 12.97607422 31.82617188 C9.44609416 30.64042735 8.01690084 28.83155366 6.10107422 25.72070312 C5.59060547 24.90150391 5.08013672 24.08230469 4.55419922 23.23828125 C4.03341797 22.38041016 3.51263672 21.52253906 2.97607422 20.63867188 C2.45529297 19.80013672 1.93451172 18.96160156 1.39794922 18.09765625 C-1.50948554 13.39510078 -4.31195215 8.64383657 -7.02392578 3.82617188 C-2.6057735 -0.22380105 -2.6057735 -0.22380105 0 0 Z " fill="#08B0F3" transform="translate(159.02392578125,108.173828125)"/>
<path d="M0 0 C4.6 2.2 4.6 2.2 6 5 C6.48602588 9.29322859 6.46241608 11.32082639 4 14.9375 C0.66411401 17.23092162 -1.09984094 17.75815509 -5.0625 17.48046875 C-8.5685303 16.61102978 -10.01216563 14.91963173 -12 12 C-12.625 8.5 -12.625 8.5 -12 5 C-8.55801715 0.097782 -5.87587932 -0.83941133 0 0 Z " fill="#41447F" transform="translate(137,454)"/>
<path d="M0 0 C9 -0.36 9 -0.36 13.125 1.125 C15 3 15 3 15.4375 5.9375 C15 9 15 9 13.875 11.125 C13.441875 12.053125 13.441875 12.053125 13 13 C13.78309467 15.23470405 13.78309467 15.23470405 15 17 C12.625 16.6875 12.625 16.6875 10 16 C9.34 15.01 8.68 14.02 8 13 C5.94074861 12.27617533 5.94074861 12.27617533 4 12 C4 13.65 4 15.3 4 17 C2.68 17 1.36 17 0 17 C0 11.39 0 5.78 0 0 Z " fill="#464A82" transform="translate(269,454)"/>
<path d="M0 0 C1.5675 -0.061875 3.135 -0.12375 4.75 -0.1875 C6.07257813 -0.23970703 6.07257813 -0.23970703 7.421875 -0.29296875 C10.49987876 0.0568044 11.81075346 0.83597519 14 3 C14.51020728 7.08165827 14.31361802 8.52957297 12 12 C12.80161791 14.67145537 12.80161791 14.67145537 14 17 C11.625 16.6875 11.625 16.6875 9 16 C8.34 15.01 7.68 14.02 7 13 C6.01 12.67 5.02 12.34 4 12 C4 13.65 4 15.3 4 17 C2.68 17 1.36 17 0 17 C0 11.39 0 5.78 0 0 Z " fill="#454982" transform="translate(177,454)"/>
<path d="M0 0 C0.33 0 0.66 0 1 0 C1.74191202 14.09632838 -2.87706408 27.68601326 -7 41 C-10.71906932 35.24963177 -9.75667774 26.5867695 -9 20 C-7.12668474 12.81273867 -3.93890867 6.27307677 0 0 Z " fill="#ED9E26" transform="translate(264,202)"/>
<path d="M0 0 C3.0625 0.1875 3.0625 0.1875 5.0625 2.1875 C4.6875 4.8125 4.6875 4.8125 4.0625 7.1875 C3.4025 7.1875 2.7425 7.1875 2.0625 7.1875 C3.0525 8.6725 3.0525 8.6725 4.0625 10.1875 C5.3825 9.8575 6.7025 9.5275 8.0625 9.1875 C7.7325 10.8375 7.4025 12.4875 7.0625 14.1875 C7.7225 14.1875 8.3825 14.1875 9.0625 14.1875 C8.7325 15.1775 8.4025 16.1675 8.0625 17.1875 C5.93777424 17.24136629 3.81266348 17.28023071 1.6875 17.3125 C0.50414062 17.33570313 -0.67921875 17.35890625 -1.8984375 17.3828125 C-4.9375 17.1875 -4.9375 17.1875 -6.9375 15.1875 C-7.32759248 11.48162144 -6.65263526 9.4159899 -4.9375 6.1875 C-4.58929959 4.52387583 -4.25345508 2.85754829 -3.9375 1.1875 C-2.9375 0.1875 -2.9375 0.1875 0 0 Z " fill="#4C5086" transform="translate(218.9375,453.8125)"/>
<path d="M0 0 C2.29296875 0.1015625 2.29296875 0.1015625 5 1 C6.80078125 3.8359375 6.80078125 3.8359375 8.3125 7.375 C8.82425781 8.53773438 9.33601563 9.70046875 9.86328125 10.8984375 C11 14 11 14 11 17 C9.68 17 8.36 17 7 17 C6.67 16.01 6.34 15.02 6 14 C3.36 13.67 0.72 13.34 -2 13 C-2.33 14.32 -2.66 15.64 -3 17 C-4.32 17 -5.64 17 -7 17 C-5.24009216 11.08030998 -2.60305395 5.58365008 0 0 Z " fill="#53568B" transform="translate(298,454)"/>
<path d="M0 0 C4.29 0 8.58 0 13 0 C13 0.99 13 1.98 13 3 C10.03 3 7.06 3 4 3 C4 4.32 4 5.64 4 7 C6.64 7 9.28 7 12 7 C12 7.99 12 8.98 12 10 C9.36 10 6.72 10 4 10 C4 11.32 4 12.64 4 14 C6.97 14 9.94 14 13 14 C13 14.99 13 15.98 13 17 C8.71 17 4.42 17 0 17 C0 11.39 0 5.78 0 0 Z " fill="#3B3F7B" transform="translate(341,454)"/>
<path d="M0 0 C1.32 0 2.64 0 4 0 C4.33 4.29 4.66 8.58 5 13 C6.98 13 8.96 13 11 13 C11 8.71 11 4.42 11 0 C12.32 0 13.64 0 15 0 C15.10832169 2.08218362 15.18573541 4.16599129 15.25 6.25 C15.29640625 7.41015625 15.3428125 8.5703125 15.390625 9.765625 C15 13 15 13 13.23828125 15.390625 C9.57383868 18.02544235 7.43656387 17.56337319 3 17 C0.44308044 14.62736293 0.02387407 13.26356972 -0.29296875 9.765625 C-0.24076172 8.02539062 -0.24076172 8.02539062 -0.1875 6.25 C-0.16042969 5.07953125 -0.13335937 3.9090625 -0.10546875 2.703125 C-0.07066406 1.81109375 -0.03585938 0.9190625 0 0 Z " fill="#42467F" transform="translate(152,454)"/>
<path d="M0 0 C0.70125 0.01417969 1.4025 0.02835937 2.125 0.04296875 C3.176875 0.05263672 3.176875 0.05263672 4.25 0.0625 C6.125 0.23046875 6.125 0.23046875 8.125 1.23046875 C7.795 2.22046875 7.465 3.21046875 7.125 4.23046875 C4.815 4.23046875 2.505 4.23046875 0.125 4.23046875 C0.125 4.89046875 0.125 5.55046875 0.125 6.23046875 C0.69089844 6.38902344 1.25679688 6.54757812 1.83984375 6.7109375 C4.05256716 7.4148091 6.07341871 8.14002743 8.125 9.23046875 C9.3125 11.73046875 9.3125 11.73046875 9.125 14.23046875 C7.50124131 16.40237528 6.64448653 17.15268467 3.93359375 17.55859375 C3.15113281 17.5328125 2.36867188 17.50703125 1.5625 17.48046875 C0.38494141 17.45726562 0.38494141 17.45726562 -0.81640625 17.43359375 C-2.875 17.23046875 -2.875 17.23046875 -4.875 16.23046875 C-4.545 15.24046875 -4.215 14.25046875 -3.875 13.23046875 C-1.235 13.23046875 1.405 13.23046875 4.125 13.23046875 C4.455 12.57046875 4.785 11.91046875 5.125 11.23046875 C4.031875 11.12734375 2.93875 11.02421875 1.8125 10.91796875 C-1.875 10.23046875 -1.875 10.23046875 -3.875 8.98046875 C-4.875 7.23046875 -4.875 7.23046875 -4.6875 4.66796875 C-3.75632259 1.87443651 -3.07051467 0.37741743 0 0 Z " fill="#434781" transform="translate(386.875,453.76953125)"/>
<path d="M0 0 C2.25 -0.0625 2.25 -0.0625 5 1 C6.71972315 3.91199127 7.7900423 6.81825939 9 10 C10.65 6.7 12.3 3.4 14 0 C15.32 0 16.64 0 18 0 C16.1668733 5.99932374 13.92678249 11.44920563 11 17 C9.68 17 8.36 17 7 17 C5.82866942 14.54379149 4.66278278 12.08525083 3.5 9.625 C3.16613281 8.92632812 2.83226562 8.22765625 2.48828125 7.5078125 C0 2.2265625 0 2.2265625 0 0 Z " fill="#424680" transform="translate(315,454)"/>
<path d="M0 0 C4.95 0 9.9 0 15 0 C15 1.32 15 2.64 15 4 C13.35 4 11.7 4 10 4 C10 8.29 10 12.58 10 17 C8.68 17 7.36 17 6 17 C6 12.38 6 7.76 6 3 C4.02 3 2.04 3 0 3 C0 2.01 0 1.02 0 0 Z " fill="#4A4E85" transform="translate(103,454)"/>
<path d="M0 0 C1.32 0 2.64 0 4 0 C4 4.62 4 9.24 4 14 C6.64 14 9.28 14 12 14 C12 14.99 12 15.98 12 17 C8.04 17 4.08 17 0 17 C0 11.39 0 5.78 0 0 Z " fill="#393D79" transform="translate(363,454)"/>
<path d="M0 0 C1 1 1 1 1.25 4.4375 C1.1675 5.613125 1.085 6.78875 1 8 C-2 10 -2 10 -5.1875 9.625 C-6.5796875 9.315625 -6.5796875 9.315625 -8 9 C-9.32561852 2.61292897 -9.32561852 2.61292897 -7.9375 0 C-5.05932137 -1.48551155 -3.0547415 -0.79688909 0 0 Z " fill="#F4F4F8" transform="translate(138,458)"/>
<path d="M0 0 C4.95 0 9.9 0 15 0 C15 0.99 15 1.98 15 3 C13.02 3 11.04 3 9 3 C9 7.62 9 12.24 9 17 C8.01 17 7.02 17 6 17 C6 12.38 6 7.76 6 3 C4.02 3 2.04 3 0 3 C0 2.01 0 1.02 0 0 Z " fill="#3C407B" transform="translate(247,454)"/>
<path d="M0 0 C0.7425 0.2475 1.485 0.495 2.25 0.75 C1.81179109 5.30737263 1.39958831 8.32653445 -1.75 11.75 C-4.71175123 11.13722388 -6.13058783 10.49627478 -8.75 8.75 C-7.21419612 4.14258836 -5.47554607 -0.49777692 0 0 Z " fill="#F3FBFE" transform="translate(131.75,160.25)"/>
<path d="M0 0 C1.1446875 0.12375 1.1446875 0.12375 2.3125 0.25 C3.125 2.375 3.125 2.375 3.3125 5.25 C1.86826519 7.55107561 0.20377865 9.26646386 -1.6875 11.25 C-3.3375 10.26 -4.9875 9.27 -6.6875 8.25 C-5.9168107 3.93413993 -4.72992724 0.43999323 0 0 Z " fill="#F1FAFE" transform="translate(119.6875,152.75)"/>
<path d="M0 0 C0 4.23197879 -1.89139138 5.3929992 -4.75 8.4375 C-5.63171875 9.38496094 -6.5134375 10.33242187 -7.421875 11.30859375 C-14.17868449 18.36229335 -14.17868449 18.36229335 -18 20 C-16.5735422 16.7413364 -14.83295838 14.5975146 -12.3046875 12.109375 C-11.23154297 11.04589844 -11.23154297 11.04589844 -10.13671875 9.9609375 C-9.39035156 9.23132813 -8.64398438 8.50171875 -7.875 7.75 C-7.12089844 7.00492188 -6.36679687 6.25984375 -5.58984375 5.4921875 C-3.73099228 3.6568658 -1.86762995 1.8263809 0 0 Z " fill="#4D5087" transform="translate(409,209)"/>
<path d="M0 0 C2.31 0.33 4.62 0.66 7 1 C6.67 2.65 6.34 4.3 6 6 C4.02 6 2.04 6 0 6 C0 4.02 0 2.04 0 0 Z " fill="#E5E6EE" transform="translate(273,457)"/>
<path d="M0 0 C1.98 0 3.96 0 6 0 C5.67 1.65 5.34 3.3 5 5 C3.35 5 1.7 5 0 5 C0 3.35 0 1.7 0 0 Z " fill="#FCFCFD" transform="translate(181,458)"/>
<path d="M0 0 C0.33 0.66 0.66 1.32 1 2 C-5.25 8.25 -5.25 8.25 -8.625 10.625 C-9.25664062 11.07101562 -9.88828125 11.51703125 -10.5390625 11.9765625 C-11.02117187 12.31429688 -11.50328125 12.65203125 -12 13 C-10.53438126 9.60312324 -8.63352456 7.39277314 -6 4.8125 C-4.948125 3.77029297 -4.948125 3.77029297 -3.875 2.70703125 C-2 1 -2 1 0 0 Z " fill="#E3992A" transform="translate(154,250)"/>
<path d="M0 0 C0 3.96130371 -1.34877125 4.82914401 -4 7.6875 C-4.7425 8.49574219 -5.485 9.30398437 -6.25 10.13671875 C-6.8275 10.75160156 -7.405 11.36648437 -8 12 C-8.99 11.67 -9.98 11.34 -11 11 C-7.37 7.37 -3.74 3.74 0 0 Z " fill="#5B5E90" transform="translate(409,209)"/>
<path d="M0 0 C1.41623216 -0.05447047 2.83308191 -0.09300508 4.25 -0.125 C5.03890625 -0.14820313 5.8278125 -0.17140625 6.640625 -0.1953125 C9.20731941 0.0171622 10.7916067 0.71345895 13 2 C12.34 2 11.68 2 11 2 C10.67 2.66 10.34 3.32 10 4 C6.7 3.01 3.4 2.02 0 1 C0 0.67 0 0.34 0 0 Z " fill="#C48738" transform="translate(167,244)"/>
<path d="M0 0 C-3.33333333 1.66666667 -6.66666667 3.33333333 -10 5 C-10 3.68 -10 2.36 -10 1 C-6.16112237 -0.48320272 -3.93795909 -1.22419163 0 0 Z " fill="#CF8E33" transform="translate(255,201)"/>
<path d="M0 0 C1.9375 0.3125 1.9375 0.3125 4 1 C4.33 1.99 4.66 2.98 5 4 C3.35 4 1.7 4 0 4 C0 2.68 0 1.36 0 0 Z " fill="#EBEBF1" transform="translate(216,464)"/>
<path d="M0 0 C0.66 0.33 1.32 0.66 2 1 C1.375 2.875 1.375 2.875 0 5 C-3.125 6.25 -3.125 6.25 -6 7 C-4.02 4.69 -2.04 2.38 0 0 Z " fill="#49446D" transform="translate(217,189)"/>
</svg>
