<?xml version="1.0" encoding="UTF-8"?>
<svg version="1.1" viewBox="0 0 2000 2000" width="1280" height="1280" xmlns="http://www.w3.org/2000/svg">
<path transform="translate(884,532)" d="m0 0h75l24 4 24 6 21 7 20 9 27 14 18 12 17 13 10 9 8 7 17 17 10 13 8 10 9 13 11 19 12 23 9 23 1 7 8-7 22-22 7-8 18-18 7-8 7-6-2 4-7 9-12 14-9 10-9 11-10 11-9 11-8 10-12 14-10 11-9 11-12 13-9 11-14 15-11 12-13 14-7 8-16 17-9 9-7 8-10 10-7 8-34 34-8 7-33 33-8 7-12 12-11 9-14 13-11 9-12 11-14 11-16 13-14 11-20 15-27 18-25 15-18 10-21 9-27 8-7 1h-38l-13-5-10-7-9-9-9-14-7-16-5-17-4-23-2-22v-74h1l4 28 4 21 7 19 9 16 11 12 14 9 13 6 9 1 9-6 13-12 1-3-4-2-28-28-9-11-13-17-12-19-14-27-10-25-7-23-5-24-2-13-1-13v-53l2-21 5-25 6-21 8-23 6-14 2-5 5-8 9-16 11-16 9-12 11-13 7-8 16-16 8-7 13-11 15-10 25-15 14-7 25-10 26-8 23-5z" fill="#FAA52E"/>
<path transform="translate(954,551)" d="m0 0 4 2 7 9 6 10 5 13 2 10v15l-3 15-1 3 9-5 14-7 11-3 8-1h17l23 5 33 11 16 8-3 1-23-5-21-2h-34l-21 4-20 8-10 6 1 1 24 1 21 4 11 5 11 8 8 9 7 12 4 11 2 15v17l-2 23-1 5-2-1-3-19-5-16-5-12-7-12-8-10-5-5v-2l-4-2-8-7-8-5-20-8-9-3-7-1 1 3 10 8 6 7 6 10 4 12 1 10-2 14-4 13-5 12-8 15-4 4 1-8 4-15 2-16-1-20-4-18-9-19-3-2 3 12 1 6v18l-3 16-6 15-6 11-8 11-4 4h-2l3 16 6 23 10 35 6 24 4 24 1 10v33l-5 31-2 7 6-4 13-10 10-8 10-9 11-9 28-24 13-12 10-9 31-29 10-9 8-8 8-7 10-10 8-7 21-21 8-7 15-16 54-54 7-8 18-18 7-8 7-6-2 4-7 9-12 14-9 10-9 11-10 11-9 11-8 10-12 14-10 11-9 11-12 13-9 11-14 15-11 12-13 14-7 8-16 17-9 9-7 8-10 10-7 8-34 34-8 7-33 33-8 7-12 12-11 9-14 13-11 9-12 11-14 11-16 13-14 11-20 15-27 18-25 15-18 10-21 9-27 8-7 1h-38l-13-5-10-7-9-9-9-14-7-16-5-17-4-23-2-22v-74h1l4 28 4 21 7 19 9 16 11 12 14 9 13 6 9 1 9-6 13-12h2l2-4 9-9 9-11 11-14 12-19 10-18 11-23 9-25 7-27 3-19 1-11v-14l-2-19-4-16-5-11-7-12-11-13-9-10-12-12-2-1v-2l-4-2-14-9-2-1 1 10 6 22 6 18 13 27 8 12 3 4v2l-5-1-16-9-11-9-11-14-6-12-3-12v-14h-2l-3 10-3 15v28l3 15 2 9-4-2-10-13-8-16-3-11v-16l4-13 8-14 3-6-6 2-14 14-9 13-7 14-5 14-4 17-3 3-1-3v-26l4-16 8-16 8-10 8-8 13-9 14-7h2v-3l-17-1-20 2-16 5-16 8-13 10h-4l4-8 9-11 10-9 12-7 11-3 9-1h9l14 3 14 5-2-4-15-14-15-10-16-8-18-6-8-2 2-4h17l14 2 13 5 11 7 13 12 2 2 2-19 5-16 6-11 7-9 9-10 9-9 14-11 12-8 14-8v3l-6 6h-2v2l-8 7-10 12-10 13-9 16-8 17-5 16-3 16-1 10h2l2-5 13-18 13-14 11-7 9-4 12-3h13l17 4 16 8 16 11 10 9 8 7-1 2-26-12-14-4-7-1h-29l-19 5-14 6-14 9-11 10h8l13-2h8l16 4 11 6 9 8v2l3 1 9 13 10 17 2 9-5-4-14-16-10-8-14-8-16-7-11-2h-12l7 4 18 10 12 11 5 6 8 13 12 22 11 23 7 21 5 24 3 27v50l-3 35-6 35v10l11-9 13-13 6-5 7-8 13-14 11-14 11-15 11-17 8-16 8-18 5-16 2-13v-32l-5-32-11-49-4-24v-31l3-17 4-15h-2l-2 4-9 14-12 22-6 15h-3l-1-8v-23l4-16 8-16 9-11 11-9-7 1-15 6-14 8-11 9-12 11-4 5h-2l2-11 8-16 7-11 10-9 16-8 10-2h14l10 1v-2l-24-6-9-1h-18l-15 2-15 4-13 5-3-1 10-9 13-8 12-5 11-3h19l20 5 16 8 12 8-3-7-10-15-9-10-9-9-13-8-14-7-12-4 2-2 5-1h14l16 4 10 5 8 6v2h2l8 10 8 16 4 12v5h2v-2h2l1-23v-22l-4-26-6-13z" fill="#363B76"/>
<path transform="translate(1215,786)" d="m0 0 2 2 2 16 1 15v23l-2 27-5 28-7 26-8 22-12 26-14 24-10 14-10 13-11 12-27 27-17 13-15 10-17 10-23 12-26 10-25 7-26 5-13 2-12 1h-34l-25-2-16-2 2-4 19-14 12-9 18-14 14-12 13-11 11-9 11-10 8-7 15-14 8-7 11-11 8-7 27-27h2l2-4 8-7 4-5 6-5 6-7h2l2-4 24-24 7-8 8-8 7-8 11-12 14-15 15-16 9-10 7-8 9-10 7-8 12-14z" fill="#06AAF3"/>
<path transform="translate(803,622)" d="m0 0v3l-6 6h-2v2l-8 7-10 12-10 13-9 16-8 17-5 16-3 16-1 10h2l2-5 13-18 13-14 11-7 9-4 12-3h13l17 4 16 8 16 11 10 9 8 7-1 2-26-12-14-4-7-1h-29l-19 5-14 6-14 9-11 10h8l13-2h8l16 4 11 6 9 8v2l3 1 9 13 10 17 2 9-5-4-14-16-10-8-14-8-16-7-11-2h-12l7 4 18 10 12 11 5 6 8 13 12 22 11 23 7 21 5 24 3 27v50l-3 35-6 35v10l11-9 13-13h2l-1 3h-2l-1 4h-2l-2 4-7 8-5 1v2l-4 2-5-1v-8l-1-3v-13l2-10 1-4 3-2 1-15-2-29-1-20 1-17-2-7-2-29-3-8-1-10-1-5h-3l-2 14 1 13-3 14-3 16-3 15-3 1-6 12-6 18-6 12-4 5-7 14-4 7h-2l-2 5-8 11-4 5-4 2v2l-5 5-4 3 2-4 10-13 12-19 10-18 11-23 9-25 7-27 3-19 1-11v-14l-2-19-4-16-5-11-7-12-11-13-9-10-12-12-2-1v-2l-4-2-14-9-2-1 1 10 6 22 6 18 13 27 8 12 3 4v2l-5-1-16-9-11-9-11-14-6-12-3-12v-14h-2l-3 10-3 15v28l3 15 2 9-4-2-10-13-8-16-3-11v-16l4-13 8-14 3-6-6 2-14 14-9 13-7 14-5 14-4 17-3 3-1-3v-26l4-16 8-16 8-10 8-8 13-9 14-7h2v-3l-17-1-20 2-16 5-16 8-13 10h-4l4-8 9-11 10-9 12-7 11-3 9-1h9l14 3 14 5-2-4-15-14-15-10-16-8-18-6-8-2 2-4h17l14 2 13 5 11 7 13 12 2 2 2-19 5-16 6-11 7-9 9-10 9-9 14-11 12-8z" fill="#3D3A5D"/>
<path transform="translate(954,551)" d="m0 0 4 2 7 9 6 10 5 13 2 10v15l-3 15-1 3 9-5 14-7 11-3 8-1h17l23 5 33 11 16 8-3 1-23-5-21-2h-34l-21 4-20 8-10 6 1 1 24 1 21 4 11 5 11 8 8 9 7 12 4 11 2 15v17l-2 23-1 5-2-1-3-19-5-16-5-12-7-12-8-10-5-5v-2l-4-2-8-7-8-5-20-8-9-3-7-1 1 3 10 8 6 7 6 10 4 12 1 10-2 14-4 13-5 12-8 15-4 4 1-8 4-15 2-16-1-20-4-18-9-19-3-2 3 12 1 6v18l-3 16-6 15-6 11-8 11-2 2h-3v-9h-4l-2-11v-26l4-17 7-16 6-9 1-4 1-3 4-2v-2l-2-1v-2l8-1v2l1 1 1-4 5-7 1-3-4-1-1 2-8 5-8 1h-7l-2 7-16 8-5 3-6 9-6 7-3 5h-2l-1 5 1 4v9l2 1 2-5 3-3h2l2-5-1-3 2-2 3 1v2l5-2 3-2-2 4-9 14-12 22-6 15h-3l-1-8v-23l4-16 8-16 9-11 11-9-7 1-15 6-14 8-11 9-12 11-4 5h-2l2-11 8-16 7-11 10-9 16-8 10-2h14l10 1v-2l-24-6-9-1h-18l-15 2-15 4-13 5-3-1 10-9 13-8 12-5 11-3h19l20 5 16 8 12 8-3-7-10-15-9-10-9-9-13-8-14-7-12-4 2-2 5-1h14l16 4 10 5 8 6v2h2l8 10 8 16 4 12v5h2v-2h2l1-23v-22l-4-26-6-13z" fill="#3D3A5D"/>
<path transform="translate(1354,563)" d="m0 0h22l-1 4-9 9-7 8-9 10-7 8-11 12-7 8-11 12-8 10h-2l-2 4-10 11-1 2h-3l1-16 1-6-8 7-12 13-22 22-2 3h-2l-2 4h-5l-5-11h-18l-6-2-5-5-7-8-14-19-13-18-4-6v-3l11-7 16-12 14-10 16-12 5-3 8 10 14 19 1 3h9l17-3 17-4 8-6 9-8 11-8 10-6 16-5zm-130 35-6 5-4 4 7 9 5-3 10-1-2-4-7-10zm-1 21m-23-3-10 8v3l10 13 12 17-2 4-6 4v2l6 1 29-5 11-10v-2h2l7-8 14-14 2-4-11-1h-7v2l-8 2-2-4-17-1-6-2 6 8 3 3 1 5-9 7h-4l-2-5-13-18-4-5z" fill="#FAA631"/>
<path transform="translate(966,642)" d="m0 0 4 1-1 5-5 6-1 3-3 1v-2h2v-2h-5l-1 2-2-1v2l3 1-1 3-4 1-1 7-6 9-7 16-4 17v26l2 11 4-1-1 10 2 1-3 1 3 16 6 23 10 35 4 15-1 13-1 4v11l1 5h-2l-3-11v-3h-2l-3 7-1 19-2 6-3 4-2 6h-2v-8h-1l1-12v-32l-5-32-11-49-4-24v-31l3-17 4-15-5 3-5 1v-2l-4 1 1 4h-2v5l-3-1-1 3h-2l-2 5-3-1v-10l1-2-2-1 2-5h2l2-5 10-12 3-5 14-8 7-2 1-5 1-2 10-1 5-1 6-4z" fill="#3D3A5D"/>
<path transform="translate(1273,669)" d="m0 0v3l-8 10-12 14-9 10-9 11-10 11-9 11-8 10-12 14-10 11-9 11-12 13-9 11-14 15-11 12-13 14-7 8-5 4-4 1-6 7-6 5-2 3h-3l-2 4h-2v2l-4 1-2 4-4 4h-2l-1 3-7 4-9 6h-2v2h-2l-2 5-7 8-7 5-2-2h3l1-8h-3l-1 3-2-3-4 3-6 2v2h-2l2-4 3-4 5-6 11-9 16-15 8-7 32-30 10-9 8-8 8-7 10-10 8-7 21-21 8-7 15-16 54-54 7-8 18-18 7-8z" fill="#3E3D5F"/>
<path transform="translate(624,576)" d="m0 0h12l6 4 4 7 1 10 10-3 11 2 7 6 4 8v9l-5 12-14 19-10 14-4 1-14-10-17-13-19-14-10-8 1-4 10-13 12-16 7-7zm-2 20-8 9-4 6 2 4 8 6 4-1 9-13v-7l-3-4zm27 16-7 6-8 11 2 4 10 7 5-4 9-14-1-6-4-4z" fill="#07ABF3"/>
<path transform="translate(1152,504)" d="m0 0 5 2 8 7 1 2-2 50-1 7 5-5 13-15 11-13h3l9 7 3 2-1 4-9 10-7 9-22 26-9 11-4-1-10-8-1-2v-13l3-42 1-2h-3l-2 4-11 14-10 11-3 5-6-2-9-7-1-3 9-11 13-15 9-11 12-14z" fill="#07ABF3"/>
<path transform="translate(1226,572)" d="m0 0 5 5 16 21 3 4v2l4 2 7 11 2 7h-6v2l-6 3-3-1-1-4h-17l-4-1 8 9 1 5-10 8-4-1-7-11-10-13-2-3-5 2-7 6 6 8 10 14 7 10-2 4-7 5-4-1-5-5-13-17-13-18-4-6v-3l11-7 16-12 14-10 16-12zm-2 26-6 5-4 4 7 9 5-3 10-1-2-4-7-10z" fill="#08ABF2"/>
<path transform="translate(1019,444)" d="m0 0 10 3 8 3 1 2-8 24-2 5 12 3 16 6h2l9-27 3-2 17 6-1 6-12 34-11 33-8-1-11-4v-6l7-19 1-5-12-3-18-6-3 12-5 15-3 1-15-5-1-1 1-8 13-37 9-28z" fill="#05AAF3"/>
<path transform="translate(781,460)" d="m0 0h15l1 1v15l-1 1-18 2-9 3-3 2v5l2 2h35l6 3 5 5 5 10-1 9-6 10-8 7-8 4-17 4h-10l-8-2-1-1v-16h22l9-2 5-3 1-6-2-3-6-1-14 2h-14l-8-3-5-6-3-7v-9l4-9 4-5 9-6 14-5z" fill="#05AAF2"/>
<path transform="translate(954,434)" d="m0 0h11l14 3 14 7 1 3-7 13-6-2-11-5-12-2-4 2-1 6 4 2 23 11 7 6 3 6 1 7-2 8-5 8-10 5-4 1h-18l-13-4-11-6-4-4 1-7 6-8 5 1 7 6 9 4 4 1h9l3-2v-6l-5-4-19-8-8-6-4-6v-13l4-8 8-6z" fill="#05AAF2"/>
<path transform="translate(856,439)" d="m0 0 14 1 7 3-1 10-2 6-7-1-5-1h-15l-6 4 1 5 8 3 22 3 8 4 5 6 3 7v9l-4 8-9 8-11 4-11 2-14-1-13-4-2-2 2-9 2-7 5 1 16 4h9l8-4v-6l-4-3-25-3-8-3-5-4-4-8v-11l4-8 8-7 10-4z" fill="#06AAF3"/>
<path transform="translate(657,536)" d="m0 0 4 1 9 11 10 11 9 11 7 7 1 2 5-1 13-12 5-5 4-1 5 5v2h2l2 3-1 5-11 10-11 9-11 10-5 3-13-15-13-14-9-11-11-12-4-5v-3l11-9z" fill="#07ABF3"/>
<path transform="translate(714,492)" d="m0 0 4 2 13 20 16 25 10 16-1 4-11 7-4 2-7-10-13-21-11-17-10-16 1-4 12-7z" fill="#08A9F1"/>
<path transform="translate(1110,481)" d="m0 0 5 1 13 7-2 6-13 23-9 16-13 23-7-2-10-6-1-4 14-24 14-25z" fill="#05AAF2"/>
<path transform="translate(1273,669)" d="m0 0v3l-8 10-12 14-9 10-9 11-10 11-9 11-8 10-12 14-10 11-9 11h-4l-8 6-2 3h-2l-1-2-6 5-5 6h-2v2h-2l-2 6-6 7-6 1 3-7 19-19 3-5 12-11 12-13 55-55 7-8 18-18 7-8z" fill="#3E447A"/>
<path transform="translate(769,1190)" d="m0 0h25l7 3 5 5 2 5v8l-4 7-3 3 1 5 6 7v2l-7 1-5-2-6-9-10-1-1 11-9 1-2-1v-44zm10 9v15l7 1 9-2 2-3v-7l-4-4z" fill="#3C467C"/>
<path transform="translate(1021,1190)" d="m0 0h26l7 3 5 5 2 5v8l-3 6-5 6 7 9 1 3-1 1-10-1-7-10-2-1-9-1v12l-7 1-4-2zm13 8-2 1v15l2 1h7l6-2 3-3v-7l-4-4z" fill="#3F4E84"/>
<path transform="translate(644,1190)" d="m0 0h16l7 3 5 4 5 9v14l-5 8-7 6-6 2h-14l-10-5-4-5-3-6v-14l4-8 7-6zm5 8-6 3-4 5-1 8 3 9 5 4 9 1 8-4 3-4 1-9-3-8-5-4z" fill="#4B5587"/>
<path transform="translate(883,1189)" d="m0 0 9 2 4 4 1 2v6l-4 6h-2l-1 5 3 2 4-1 3-2h5l1 1-1 13 2 5-2 3h-5l-4-2-8 3h-13l-6-3-4-5-1-7 4-6 3-3h2l-4-10 1-6 5-5zm-1 7-3 2 1 7 7-1 1-1v-5l-2-2zm-3 20-5 5 1 5 4 3h7l3-2-1-4-5-6z" fill="#506292"/>
<path transform="translate(966,642)" d="m0 0 4 1-1 5-5 6-1 3-3 1v-2h2v-2h-5l-1 2-2-1v2l3 1-1 3-4 1-1 4-2 2v-2h-5l-3 1v2l-4 4-4 6-1 5-5 1-6 8h-4v-2l-4 1 1 4h-2v5l-3-1-1 3h-2l-2 5-3-1v-10l1-2-2-1 2-5h2l2-5 10-12 3-5 14-8 7-2 1-5 1-2 10-1 5-1 6-4z" fill="#363A75"/>
<path transform="translate(1216,1190)" d="m0 0h33l1 1v7l-23 1-1 10h21l1 7-2 1h-20v11h24l1 1v6l-35 1-1-1v-44z" fill="#405189"/>
<path transform="translate(1106,1189)" d="m0 0 5 2 7 15 11 25 1 4-1 1h-7l-4-4-2-6-22 1-4 8-7 1-3-1 2-6 12-28 5-9 2-2zm-2 14-6 13 1 2h13l-5-14z" fill="#465285"/>
<path transform="translate(701,1190)" d="m0 0h10l1 1v23l2 10 5 3h6l5-5 1-3 1-29h10l1 20-1 13-4 7-5 4-5 2h-14l-6-3-5-6-2-6z" fill="#3A437B"/>
<path transform="translate(1340,1190)" d="m0 0h17l6 3v5l-2 2-7-1h-12l-2 1 1 6 18 6 6 5 1 7-4 8-5 3-4 1h-14l-9-3-2-5 2-4 10 3h13l2-5v-2l-16-4-6-3-4-5-1-5 3-7 6-5z" fill="#566393"/>
<path transform="translate(1146,1190)" d="m0 0h10l3 3 8 20 2 8 3-3 12-27 3-1h8l-6 17-8 18-6 10-1 1h-7l-4-5-8-17-9-21z" fill="#4A5589"/>
<path transform="translate(954,664)" d="m0 0 2 2-3 22-5 28-8 29-2 4-3-1-2-11v-26l4-17 7-16 7-11z" fill="#FAA52E"/>
<path transform="translate(960,1190)" d="m0 0h39v8l-15 1v36l-5 1-5-1v-36h-14l-1-1v-7z" fill="#33467F"/>
<path transform="translate(570,1190)" d="m0 0h38l1 1v7l-14 1-1 36-1 1h-8l-1-1-1-36h-9l-5-1-1-5z" fill="#3B477F"/>
<path transform="translate(1276,1190)" d="m0 0h9l1 1v37l21-1 2 1v7l-32 1-2-1v-44z" fill="#41578E"/>
<path transform="translate(938,913)" d="m0 0 1 4-4 11-4 6-2 6-3 5h-2l-1 7-3 3-1 4h-2l-2 5-3 4-3 6-4 6h-2v2h-2l-2 4-2 3h-2l-2 4-4 5h-2l-3 6h-2l-2 4-7 8-6 5-2-1 2-4 10-10 9-11 10-12 12-17 10-16 8-16 8-19 2 2z" fill="#3D3A5D"/>
<path transform="translate(815,698)" d="m0 0h14l8 2 6 2 10 4 2 3 5 1 2 7-7-1-19-5-19-3-3-5-7-1v-2z" fill="#363A76"/>
<path transform="translate(883,1189)" d="m0 0 9 2 4 4 1 2v6l-4 6h-2l-2 5-5-2-1-3 3-3-1-2 2-1v-5l-5-1-3 3h-2v6l-4 2v-2l-3-1-1-6 3-6 5-3z" fill="#4D6091"/>
<path transform="translate(793,752)" d="m0 0 4 1v2l5-1 5 2 8 7 4 6v3h-4l-1-2-3 1-12-7-4-6v-2h-2z" fill="#363A75"/>
<path transform="translate(1273,669)" d="m0 0v3l-8 10-12 14-9 10-6 4-5 6-7 6-1-3 10-10 7-8 18-18 7-8z" fill="#6E7598"/>
<path transform="translate(1236,611)" d="m0 0 4 5 4 8h-14l-6-3v-2h-2l-1-3 2-3z" fill="#FAB350"/>
<path transform="translate(938,913)" d="m0 0 1 4-4 11-4 6-2 6-3 5h-2l-1 7-5 2 1-6 8-16 7-17 2 2z" fill="#393A6A"/>
<path transform="translate(933,597)" d="m0 0 8 4 6 7 1 5-2 2-4-1-13-13 2-1v-2z" fill="#363A76"/>
<path transform="translate(1227,1209)" d="m0 0h20l1 7h-22z" fill="#39466E"/>
<path transform="translate(1075,624)" d="m0 0 9 2 13 6 8 4-3 1-23-5-21-2v-2l19 1v-3z" fill="#3E3B5D"/>
<path transform="translate(1063,621)" d="m0 0 12 2v2l5 1-3 1 1 3-13-1-8-1-1-3 2-2h5z" fill="#363A74"/>
<path transform="translate(730,759)" d="m0 0 2 4 3 1v6l-6 2-1-1-1 2-4 1-2-5 5-7h2v-2z" fill="#363A75"/>
<path transform="translate(1034,671)" d="m0 0 6 3 4 5 2 1v4l-2 5-6-2-1-6-4-4-1-5z" fill="#363A76"/>
<path transform="translate(932,697)" d="m0 0h2l-1 13-1 8h-2l-1 2-2-2v-13l2-6z" fill="#363A75"/>
<path transform="translate(888,662)" d="m0 0 1 3-1 3h-2l-1 4h-2v2l-3 2-1 3h-2l1 3h-3l-1 2-1-6h2v-5l6-7h2v-2l3-1 1 1z" fill="#363A76"/>
<path transform="translate(1273,669)" d="m0 0v3l-8 10-11 13-4 1-6 6-2-1 18-18 7-8z" fill="#E4DEC9"/>
<path transform="translate(1153,791)" d="m0 0v3l-19 19-2 5-4 6h-2v2h-2v-7l16-15z" fill="#3A3A68"/>
<path transform="translate(840,927)" d="m0 0h1v26l-4 1-1-3v-11z" fill="#363A76"/>
<path transform="translate(1227,1231)" d="m0 0h9 3l6 1 6-1v4l-35 1 1-2 8-1z" fill="#3E3B5D"/>
<path transform="translate(695,708)" d="m0 0 8 4 4-1v3l3 1-1 4-5-1-9-5v-2l-2-1z" fill="#363A75"/>
<path transform="translate(633,969)" d="m0 0h1l4 28 1 10h-2l-1-7h-2v-11l-1-1z" fill="#97C9E4"/>
<path transform="translate(593,1200)" d="m0 0h1v35l-1 1h-8l1-2 5-2 1-6v-15z" fill="#3E3B5D"/>
<path transform="translate(734,775)" d="m0 0h7l1 3-3 8-4 2-2-10z" fill="#363A76"/>
<path transform="translate(931,636)" d="m0 0h6l6 2 2 3-1 3-18-5 2-2z" fill="#363A76"/>
<path transform="translate(877,1196)" d="m0 0 2 1v3h-2v6l-4 2v-2l-3-1-1-6z" fill="#404A7F"/>
<path transform="translate(941,746)" d="m0 0 1 2 5-2-1 7-4 4h-3v-8z" fill="#373A72"/>
<path transform="translate(964,938)" d="m0 0h1l-1 11-3 13 4-1-2 3h-3l-2-11 1-2h2z" fill="#3E3B5D"/>
<path transform="translate(962,902)" d="m0 0h1v17l-1 7h-2l-1-5 2-18z" fill="#3E3B5D"/>
<path transform="translate(1132,814)" d="m0 0 2 1-6 9h-2v2h-2v-7l5-4v2h2z" fill="#3B3A66"/>
<path transform="translate(900,1213)" d="m0 0 2 1-1 2-5 3v5l-3-1v-4l-4-3 1-2 3 2 4-1zm-9 11 2 1-4 4-3-1z" fill="#8ED0EF"/>
<path transform="translate(1013,920)" d="m0 0 2 1-10 11h-3v2l-6 2 4-5 11-9z" fill="#3D3A5D"/>
<path transform="translate(732,1192)" d="m0 0 2 2 1 9-1 12-2 1z" fill="#3E3B5D"/>
<path transform="translate(747,1042)" d="m0 0 1 2-7 10-5 3h-3l7-7z" fill="#3D3A5E"/>
<path transform="translate(1074,870)" d="m0 0 3 2h-2l-2 5-5 4-1-4 1-4 6-1z" fill="#363A73"/>
<path transform="translate(938,913)" d="m0 0 1 4-4 11-3 2 2-9z" fill="#3E3B5D"/>
<path transform="translate(1342,1216)" d="m0 0h10l5 4-1 7-2-1 1-6-13-3z" fill="#CCE6F0"/>
<path transform="translate(1019,915)" d="m0 0 3 1-5 5-2 4-3 1v-3z" fill="#383A6E"/>
<path transform="translate(1251,694)" d="m0 0 2 2-7 8-4-1 5-5z" fill="#3A3A68"/>
<path transform="translate(1253,690)" d="m0 0 3 1-2 4-4 1-6 6-2-1z" fill="#C4A073"/>
<path transform="translate(1273,669)" d="m0 0v3l-5 7-5 3-2 1 2-4z" fill="#5F6D88"/>
<path transform="translate(593,1228)" d="m0 0h1v7l-1 1h-8l1-2 5-2z" fill="#3B3E62"/>
<path transform="translate(956,727)" d="m0 0h2l-1 6-4 6-1-4h2v-2l-2-1 3-3z" fill="#363A76"/>
<path transform="translate(1240,707)" d="m0 0 3 1-8 9-2-1 2-4z" fill="#505E8E"/>
<path transform="translate(931,930)" d="m0 0 1 3-4 8h-1l-1-7 2-2h2z" fill="#3D3A5D"/>
<path transform="translate(684,789)" d="m0 0h3l1 2-4 6h-2l1-7z" fill="#363A76"/>
<path transform="translate(1176,768)" d="m0 0 2 2-9 9-2-1z" fill="#3D3A5F"/>
<path transform="translate(1274,668)" d="m0 0" fill="#FDFDFD"/>
</svg>
